<svg xmlns="http://www.w3.org/2000/svg" xmlns:xlink="http://www.w3.org/1999/xlink" width="592" height="535.016" viewBox="0 0 592 535.016">
  <defs>
    <linearGradient id="linear-gradient" x1="0.437" y1="0.85" x2="0.642" y2="0.326" gradientUnits="objectBoundingBox">
      <stop offset="0" stop-color="#fff"/>
      <stop offset="1" stop-color="#438be3"/>
    </linearGradient>
    <linearGradient id="linear-gradient-2" x1="-0.714" y1="0.123" x2="-1.033" y2="0.175" gradientUnits="objectBoundingBox">
      <stop offset="0" stop-color="#fff"/>
      <stop offset="1" stop-color="#b4d1f4"/>
    </linearGradient>
    <linearGradient id="linear-gradient-3" y1="0.5" x2="1.35" y2="0.5" gradientUnits="objectBoundingBox">
      <stop offset="0" stop-color="#b81834"/>
      <stop offset="1" stop-color="#d1314d"/>
    </linearGradient>
    <linearGradient id="linear-gradient-4" y1="0.5" x2="1.35" y2="0.5" gradientUnits="objectBoundingBox">
      <stop offset="0" stop-color="#044ca4"/>
      <stop offset="1" stop-color="#1d65bd"/>
    </linearGradient>
    <linearGradient id="linear-gradient-5" y1="0.5" x2="1.35" y2="0.5" gradientUnits="objectBoundingBox">
      <stop offset="0" stop-color="#c7deeb"/>
      <stop offset="1" stop-color="#fff"/>
    </linearGradient>
  </defs>
  <g id="Group_11003" data-name="Group 11003" transform="translate(-150 -1905.823)">
    <g id="Group_10998" data-name="Group 10998" transform="translate(-977 696)">
      <circle id="Ellipse_2" data-name="Ellipse 2" cx="233.5" cy="233.5" r="233.5" transform="translate(1252 1226)" fill="#e5eafb"/>
    </g>
    <g id="Group_10999" data-name="Group 10999" transform="translate(150 1905.823)">
      <g id="Group_849" data-name="Group 849" transform="translate(0 245.713)">
        <path id="Path_2769" data-name="Path 2769" d="M322.037,1069.647a25.181,25.181,0,0,1-12.387-2.957L64.189,924.97c-3.373-1.948-5.231-4.572-5.231-7.39s1.858-5.442,5.231-7.39L283.961,783.3a27.431,27.431,0,0,1,24.774,0L554.2,925.022c3.373,1.948,5.231,4.572,5.231,7.39s-1.858,5.442-5.231,7.39L334.424,1066.691A25.182,25.182,0,0,1,322.037,1069.647ZM296.349,781.171a24.359,24.359,0,0,0-11.973,2.846L64.6,910.906c-3.107,1.794-4.818,4.164-4.818,6.674s1.711,4.881,4.818,6.674l245.46,141.721a26.617,26.617,0,0,0,23.947,0L553.782,939.086c3.107-1.794,4.818-4.163,4.818-6.674s-1.711-4.881-4.818-6.675L308.322,784.017A24.361,24.361,0,0,0,296.349,781.171Z" transform="translate(-58.958 -780.345)" fill="#fff"/>
      </g>
      <g id="Group_850" data-name="Group 850" transform="translate(118.35 184.611)" opacity="0.1" style="mix-blend-mode: multiply;isolation: isolate">
        <path id="Path_2770" data-name="Path 2770" d="M834.878,946.747c1.839,1.061,1.861,2.8.034,3.859l-126.466,73.443a7.389,7.389,0,0,1-6.674,0l-234-136.362c-1.838-1.063-1.849-2.806-.022-3.866l126.466-73.442a7.363,7.363,0,0,1,6.663,0Z" transform="translate(-466.384 -809.583)" fill="#438be3"/>
      </g>
      <g id="Group_855" data-name="Group 855" transform="translate(30.9 329.234)">
        <g id="Group_851" data-name="Group 851" transform="translate(7.54 26.554)" opacity="0.2" style="mix-blend-mode: multiply;isolation: isolate">
          <path id="Path_2771" data-name="Path 2771" d="M269.3,1209.936c1.839,1.064,1.861,2.8.034,3.86l-29.152,16.941a7.381,7.381,0,0,1-6.675,0L204.168,1213.8c-1.838-1.06-1.85-2.8-.022-3.865L233.3,1192.99a7.372,7.372,0,0,1,6.663.006Z" transform="translate(-202.782 -1192.198)" fill="#438be3"/>
        </g>
        <g id="Group_853" data-name="Group 853" transform="translate(0 22.013)">
          <g id="Group_852" data-name="Group 852">
            <path id="Path_2772" data-name="Path 2772" d="M216.205,1223.626a8.638,8.638,0,0,1-4.25-1.02l-35.5-20.5a3.242,3.242,0,0,1-1.882-2.706,3.207,3.207,0,0,1,1.856-2.686l35.271-20.5a8.53,8.53,0,0,1,4.219-1.015,8.67,8.67,0,0,1,4.257,1.021l35.5,20.5a3.254,3.254,0,0,1,1.891,2.709,3.2,3.2,0,0,1-1.846,2.675l-35.272,20.5A8.562,8.562,0,0,1,216.205,1223.626Zm-.288-47.591a7.706,7.706,0,0,0-3.8.9l-35.271,20.5a2.435,2.435,0,0,0-1.444,1.97,2.468,2.468,0,0,0,1.469,1.991l35.5,20.495a8.523,8.523,0,0,0,7.66,0l35.273-20.5a2.42,2.42,0,0,0,1.435-1.959,2.479,2.479,0,0,0-1.477-2l-35.5-20.494A7.819,7.819,0,0,0,215.917,1176.035Z" transform="translate(-174.572 -1175.208)" fill="#fff"/>
          </g>
        </g>
        <path id="Path_2773" data-name="Path 2773" d="M269.286,1168.324l-29.152,16.941a7.393,7.393,0,0,1-6.675,0l-29.342-16.939a2.362,2.362,0,0,1-1.384-1.949l-.02,15.14a2.353,2.353,0,0,0,1.386,1.945l29.341,16.941a7.385,7.385,0,0,0,6.674,0l29.152-16.941a2.323,2.323,0,0,0,1.357-1.91l.019-15.139A2.325,2.325,0,0,1,269.286,1168.324Z" transform="translate(-195.193 -1146.725)" fill="#fff"/>
        <path id="Path_2774" data-name="Path 2774" d="M269.286,1168.324l-29.152,16.941a7.393,7.393,0,0,1-6.675,0l-29.342-16.939a2.362,2.362,0,0,1-1.384-1.949l-.02,15.14a2.353,2.353,0,0,0,1.386,1.945l29.341,16.941a7.385,7.385,0,0,0,6.674,0l29.152-16.941a2.323,2.323,0,0,0,1.357-1.91l.019-15.139A2.325,2.325,0,0,1,269.286,1168.324Z" transform="translate(-195.193 -1146.725)" fill="#438be3" opacity="0.2" style="mix-blend-mode: multiply;isolation: isolate"/>
        <g id="Group_854" data-name="Group 854" transform="translate(7.54 0)">
          <path id="Path_2775" data-name="Path 2775" d="M269.3,1110.586c1.839,1.061,1.861,2.8.034,3.858l-29.152,16.941a7.391,7.391,0,0,1-6.675,0l-29.342-16.938c-1.838-1.063-1.85-2.806-.022-3.867l29.153-16.941a7.364,7.364,0,0,1,6.663,0Z" transform="translate(-202.782 -1092.845)" fill="#fff"/>
        </g>
      </g>
      <g id="Group_860" data-name="Group 860" transform="translate(95.537 368.001)">
        <g id="Group_856" data-name="Group 856" transform="translate(7.54 26.554)" opacity="0.2" style="mix-blend-mode: multiply;isolation: isolate">
          <path id="Path_2776" data-name="Path 2776" d="M511.149,1354.987c1.839,1.064,1.861,2.8.034,3.861l-29.152,16.941a7.388,7.388,0,0,1-6.675,0l-29.342-16.941c-1.839-1.061-1.849-2.8-.022-3.866l29.152-16.941a7.374,7.374,0,0,1,6.663.006Z" transform="translate(-444.628 -1337.248)" fill="#438be3"/>
        </g>
        <g id="Group_858" data-name="Group 858" transform="translate(0 22.013)">
          <g id="Group_857" data-name="Group 857">
            <path id="Path_2777" data-name="Path 2777" d="M458.051,1368.676a8.624,8.624,0,0,1-4.25-1.02l-35.5-20.5a2.879,2.879,0,0,1-.026-5.392l35.271-20.5a8.536,8.536,0,0,1,4.219-1.014,8.652,8.652,0,0,1,4.257,1.022l35.5,20.495a3.252,3.252,0,0,1,1.891,2.71,3.192,3.192,0,0,1-1.846,2.674l-35.272,20.5A8.561,8.561,0,0,1,458.051,1368.676Zm-.288-47.591a7.7,7.7,0,0,0-3.8.9l-35.271,20.5a2.433,2.433,0,0,0-1.444,1.97,2.466,2.466,0,0,0,1.469,1.99l35.5,20.495a8.522,8.522,0,0,0,7.66,0l35.273-20.5a2.42,2.42,0,0,0,1.435-1.958,2.478,2.478,0,0,0-1.477-1.994L461.607,1322A7.815,7.815,0,0,0,457.763,1321.085Z" transform="translate(-416.418 -1320.258)" fill="#fff"/>
          </g>
        </g>
        <path id="Path_2778" data-name="Path 2778" d="M511.133,1313.374l-29.152,16.941a7.392,7.392,0,0,1-6.674,0l-29.342-16.939a2.362,2.362,0,0,1-1.385-1.948l-.019,15.141a2.353,2.353,0,0,0,1.386,1.945l29.341,16.942a7.385,7.385,0,0,0,6.674,0l29.152-16.942a2.32,2.32,0,0,0,1.357-1.91l.02-15.139A2.325,2.325,0,0,1,511.133,1313.374Z" transform="translate(-437.039 -1291.775)" fill="#fff"/>
        <path id="Path_2779" data-name="Path 2779" d="M511.133,1313.374l-29.152,16.941a7.392,7.392,0,0,1-6.674,0l-29.342-16.939a2.362,2.362,0,0,1-1.385-1.948l-.019,15.141a2.353,2.353,0,0,0,1.386,1.945l29.341,16.942a7.385,7.385,0,0,0,6.674,0l29.152-16.942a2.32,2.32,0,0,0,1.357-1.91l.02-15.139A2.325,2.325,0,0,1,511.133,1313.374Z" transform="translate(-437.039 -1291.775)" fill="#438be3" opacity="0.2" style="mix-blend-mode: multiply;isolation: isolate"/>
        <g id="Group_859" data-name="Group 859" transform="translate(7.54 0)">
          <path id="Path_2780" data-name="Path 2780" d="M511.149,1255.635c1.839,1.062,1.861,2.8.034,3.859l-29.152,16.941a7.393,7.393,0,0,1-6.675,0L446.014,1259.5c-1.839-1.063-1.849-2.806-.022-3.866l29.152-16.941a7.362,7.362,0,0,1,6.663,0Z" transform="translate(-444.628 -1237.895)" fill="#fff"/>
        </g>
      </g>
      <g id="Group_865" data-name="Group 865" transform="translate(162.542 406.244)">
        <g id="Group_861" data-name="Group 861" transform="translate(7.54 26.554)" opacity="0.2" style="mix-blend-mode: multiply;isolation: isolate">
          <path id="Path_2781" data-name="Path 2781" d="M761.855,1498.077c1.839,1.064,1.861,2.8.034,3.86l-29.152,16.941a7.386,7.386,0,0,1-6.674,0l-29.342-16.941c-1.838-1.06-1.849-2.8-.022-3.865l29.153-16.941a7.375,7.375,0,0,1,6.663.006Z" transform="translate(-695.334 -1480.339)" fill="#438be3"/>
        </g>
        <g id="Group_863" data-name="Group 863" transform="translate(0 22.013)">
          <g id="Group_862" data-name="Group 862">
            <path id="Path_2782" data-name="Path 2782" d="M708.757,1511.768a8.626,8.626,0,0,1-4.25-1.021l-35.5-20.494a2.879,2.879,0,0,1-.026-5.392l35.271-20.5a8.536,8.536,0,0,1,4.219-1.014,8.656,8.656,0,0,1,4.257,1.021l35.5,20.5a3.25,3.25,0,0,1,1.891,2.709,3.193,3.193,0,0,1-1.847,2.674L713,1510.747A8.565,8.565,0,0,1,708.757,1511.768Zm-.287-47.592a7.706,7.706,0,0,0-3.8.9l-35.27,20.5a2.432,2.432,0,0,0-1.444,1.969,2.465,2.465,0,0,0,1.469,1.99l35.5,20.5a8.527,8.527,0,0,0,7.66,0l35.273-20.5a2.418,2.418,0,0,0,1.434-1.958,2.477,2.477,0,0,0-1.477-1.994l-35.5-20.5A7.82,7.82,0,0,0,708.469,1464.176Z" transform="translate(-667.124 -1463.35)" fill="#fff"/>
          </g>
        </g>
        <path id="Path_2783" data-name="Path 2783" d="M761.839,1456.464l-29.152,16.942a7.4,7.4,0,0,1-6.675,0l-29.342-16.94a2.36,2.36,0,0,1-1.384-1.949l-.02,15.141a2.351,2.351,0,0,0,1.386,1.944l29.341,16.942a7.381,7.381,0,0,0,6.674,0l29.152-16.942a2.321,2.321,0,0,0,1.357-1.91l.02-15.139A2.326,2.326,0,0,1,761.839,1456.464Z" transform="translate(-687.745 -1434.865)" fill="#fff"/>
        <path id="Path_2784" data-name="Path 2784" d="M761.839,1456.464l-29.152,16.942a7.4,7.4,0,0,1-6.675,0l-29.342-16.94a2.36,2.36,0,0,1-1.384-1.949l-.02,15.141a2.351,2.351,0,0,0,1.386,1.944l29.341,16.942a7.381,7.381,0,0,0,6.674,0l29.152-16.942a2.321,2.321,0,0,0,1.357-1.91l.02-15.139A2.326,2.326,0,0,1,761.839,1456.464Z" transform="translate(-687.745 -1434.865)" fill="#438be3" opacity="0.2" style="mix-blend-mode: multiply;isolation: isolate"/>
        <g id="Group_864" data-name="Group 864" transform="translate(7.54 0)">
          <path id="Path_2785" data-name="Path 2785" d="M761.855,1398.726c1.839,1.062,1.861,2.8.034,3.859l-29.152,16.942a7.4,7.4,0,0,1-6.674,0l-29.342-16.939c-1.838-1.063-1.849-2.806-.022-3.865l29.153-16.942a7.364,7.364,0,0,1,6.663.006Z" transform="translate(-695.334 -1380.986)" fill="#fff"/>
        </g>
      </g>
      <g id="Group_870" data-name="Group 870" transform="translate(228.207 444.16)">
        <g id="Group_866" data-name="Group 866" transform="translate(7.54 26.553)" opacity="0.2" style="mix-blend-mode: multiply;isolation: isolate">
          <path id="Path_2786" data-name="Path 2786" d="M1007.548,1639.941c1.839,1.065,1.861,2.8.034,3.861l-29.152,16.941a7.387,7.387,0,0,1-6.675,0L942.413,1643.8c-1.838-1.06-1.849-2.8-.022-3.865l29.152-16.942a7.374,7.374,0,0,1,6.663.007Z" transform="translate(-941.027 -1622.202)" fill="#438be3"/>
        </g>
        <g id="Group_868" data-name="Group 868" transform="translate(0 22.012)">
          <g id="Group_867" data-name="Group 867">
            <path id="Path_2787" data-name="Path 2787" d="M954.449,1653.63a8.622,8.622,0,0,1-4.25-1.02l-35.5-20.5a2.879,2.879,0,0,1-.026-5.393l35.27-20.5a8.551,8.551,0,0,1,4.218-1.014,8.667,8.667,0,0,1,4.257,1.022l35.5,20.5a3.251,3.251,0,0,1,1.891,2.71,3.194,3.194,0,0,1-1.846,2.675l-35.273,20.5A8.558,8.558,0,0,1,954.449,1653.63Zm-.288-47.591a7.7,7.7,0,0,0-3.8.9l-35.271,20.5a2.433,2.433,0,0,0-1.444,1.97,2.466,2.466,0,0,0,1.468,1.99l35.5,20.5a8.524,8.524,0,0,0,7.66,0l35.273-20.5a2.421,2.421,0,0,0,1.435-1.959,2.478,2.478,0,0,0-1.477-1.994l-35.5-20.5A7.826,7.826,0,0,0,954.161,1606.039Z" transform="translate(-912.816 -1605.211)" fill="#fff"/>
          </g>
        </g>
        <path id="Path_2788" data-name="Path 2788" d="M1007.531,1598.328,978.38,1615.27a7.4,7.4,0,0,1-6.675,0l-29.342-16.939a2.36,2.36,0,0,1-1.384-1.949l-.019,15.14a2.351,2.351,0,0,0,1.386,1.945l29.341,16.941a7.387,7.387,0,0,0,6.675,0l29.151-16.941a2.322,2.322,0,0,0,1.358-1.91l.019-15.139A2.323,2.323,0,0,1,1007.531,1598.328Z" transform="translate(-933.437 -1576.729)" fill="#fff"/>
        <path id="Path_2789" data-name="Path 2789" d="M1007.531,1598.328,978.38,1615.27a7.4,7.4,0,0,1-6.675,0l-29.342-16.939a2.36,2.36,0,0,1-1.384-1.949l-.019,15.14a2.351,2.351,0,0,0,1.386,1.945l29.341,16.941a7.387,7.387,0,0,0,6.675,0l29.151-16.941a2.322,2.322,0,0,0,1.358-1.91l.019-15.139A2.323,2.323,0,0,1,1007.531,1598.328Z" transform="translate(-933.437 -1576.729)" fill="#438be3" opacity="0.2" style="mix-blend-mode: multiply;isolation: isolate"/>
        <g id="Group_869" data-name="Group 869" transform="translate(7.54)">
          <path id="Path_2790" data-name="Path 2790" d="M1007.548,1540.59c1.839,1.062,1.861,2.8.034,3.859l-29.152,16.941a7.394,7.394,0,0,1-6.675,0l-29.342-16.939c-1.838-1.062-1.849-2.806-.022-3.866l29.152-16.942a7.368,7.368,0,0,1,6.663.005Z" transform="translate(-941.027 -1522.85)" fill="#fff"/>
        </g>
      </g>
      <path id="Path_2791" data-name="Path 2791" d="M834.861,1013.967,708.4,1087.409a7.4,7.4,0,0,1-6.674,0l-234-136.363a2.361,2.361,0,0,1-1.385-1.949l-.02,18.48a2.351,2.351,0,0,0,1.386,1.945l234,136.365a7.381,7.381,0,0,0,6.675,0l126.466-73.443a2.322,2.322,0,0,0,1.358-1.909l.019-18.479A2.325,2.325,0,0,1,834.861,1013.967Z" transform="translate(-357.442 -658.282)" fill="#fff"/>
      <path id="Path_2792" data-name="Path 2792" d="M834.861,1013.967,708.4,1087.409a7.4,7.4,0,0,1-6.674,0l-234-136.363a2.361,2.361,0,0,1-1.385-1.949l-.02,18.48a2.351,2.351,0,0,0,1.386,1.945l234,136.365a7.381,7.381,0,0,0,6.675,0l126.466-73.443a2.322,2.322,0,0,0,1.358-1.909l.019-18.479A2.325,2.325,0,0,1,834.861,1013.967Z" transform="translate(-347.983 -727.199)" fill="#438be3" opacity="0.2" style="mix-blend-mode: multiply;isolation: isolate"/>
      <g id="Group_871" data-name="Group 871" transform="translate(118.35 145.745)">
        <path id="Path_2793" data-name="Path 2793" d="M834.878,801.324c1.839,1.062,1.861,2.8.034,3.859L708.446,878.626a7.394,7.394,0,0,1-6.674,0l-234-136.363c-1.838-1.063-1.849-2.805-.022-3.866l126.466-73.443a7.367,7.367,0,0,1,6.663.005Z" transform="translate(-466.384 -664.161)" fill="#fff"/>
      </g>
      <path id="Path_2794" data-name="Path 2794" d="M851.753,824.9H704.6L572.037,737.865l91.493-53.132Z" transform="translate(-425.449 -533.489)" opacity="0.1" fill="url(#linear-gradient)" style="mix-blend-mode: multiply;isolation: isolate"/>
      <g id="Group_885" data-name="Group 885" transform="translate(238.669)">
        <g id="Group_881" data-name="Group 881">
          <g id="Group_873" data-name="Group 873" transform="translate(0.394 166.385)">
            <path id="Path_2795" data-name="Path 2795" d="M918.071,769.886c-.006,1.973,1.3,3.95,3.906,5.456l172.032,99.323c5.18,2.991,13.552,2.993,18.7,0,2.555-1.486,3.834-3.429,3.84-5.375q-.016,5.231-.03,10.465c-.006,1.947-1.285,3.89-3.841,5.374-5.146,2.992-13.517,2.989-18.7,0L921.946,785.806c-2.608-1.506-3.911-3.482-3.9-5.455Q918.054,775.119,918.071,769.886Z" transform="translate(-918.042 -762.269)" fill="#fff"/>
            <path id="Path_2796" data-name="Path 2796" d="M918.071,769.886c-.006,1.973,1.3,3.95,3.906,5.456l172.032,99.323c5.18,2.991,13.552,2.993,18.7,0,2.555-1.486,3.834-3.429,3.84-5.375q-.016,5.231-.03,10.465c-.006,1.947-1.285,3.89-3.841,5.374-5.146,2.992-13.517,2.989-18.7,0L921.946,785.806c-2.608-1.506-3.911-3.482-3.9-5.455Q918.054,775.119,918.071,769.886Z" transform="translate(-918.042 -762.269)" fill="#438be3" opacity="0.2" style="mix-blend-mode: multiply;isolation: isolate"/>
            <g id="Group_872" data-name="Group 872" transform="translate(0.029)">
              <path id="Path_2797" data-name="Path 2797" d="M1112.721,842.954c5.18,2.991,5.212,7.839.065,10.83s-13.518,2.989-18.7,0L922.056,754.459c-5.181-2.991-5.212-7.84-.066-10.831s13.518-2.988,18.7,0Z" transform="translate(-918.151 -741.386)" fill="#fff"/>
            </g>
          </g>
          <g id="Group_878" data-name="Group 878" transform="translate(8.778 152.994)">
            <g id="Group_877" data-name="Group 877" style="isolation: isolate">
              <g id="Group_874" data-name="Group 874" transform="translate(170.775 98.596)">
                <path id="Path_2798" data-name="Path 2798" d="M1596.463,1060.188l-.045,15.7-8.037,4.67.043-15.7Z" transform="translate(-1588.381 -1060.188)" fill="#9bb8db"/>
              </g>
              <g id="Group_875" data-name="Group 875" transform="translate(0 4.671)">
                <path id="Path_2799" data-name="Path 2799" d="M1120.23,807.354l-.044,15.7-170.774-98.6.045-15.7Z" transform="translate(-949.412 -708.758)" fill="#b4d1f4"/>
              </g>
              <g id="Group_876" data-name="Group 876" transform="translate(0.044)">
                <path id="Path_2800" data-name="Path 2800" d="M1128.39,789.878l-8.039,4.671-170.773-98.6,8.038-4.671Z" transform="translate(-949.578 -691.282)" fill="#d9e8f9"/>
              </g>
            </g>
          </g>
          <g id="Group_880" data-name="Group 880">
            <path id="Path_2801" data-name="Path 2801" d="M927.565,121.781l4.524-2.629a3.206,3.206,0,0,1,3.236.31l181.6,104.848a10.04,10.04,0,0,1,4.539,7.861l-.4,140.2a3.184,3.184,0,0,1-1.332,2.914l-9.049,5.258a3.183,3.183,0,0,0,1.332-2.914l.4-140.2a10.038,10.038,0,0,0-4.539-7.861L926.277,124.72a3.207,3.207,0,0,0-3.236-.31Z" transform="translate(-921.311 -118.843)" fill="#fff"/>
            <path id="Path_2802" data-name="Path 2802" d="M1614.631,518.719l9.048-5.258a10.039,10.039,0,0,1,4.539,7.861l-.4,140.2a3.18,3.18,0,0,1-1.331,2.914l-9.049,5.258a3.181,3.181,0,0,0,1.332-2.914l.4-140.2A10.038,10.038,0,0,0,1614.631,518.719Z" transform="translate(-1428.063 -407.993)" opacity="0.3" fill="url(#linear-gradient-2)" style="mix-blend-mode: multiply;isolation: isolate"/>
            <g id="Group_879" data-name="Group 879" transform="translate(0 5.258)">
              <path id="Path_2803" data-name="Path 2803" d="M921.534,139.136c-2.5-1.446-4.56-.274-4.568,2.6l-.4,140.2a10.037,10.037,0,0,0,4.54,7.86l181.6,104.849c2.5,1.445,4.56.273,4.568-2.6l.4-140.2a10.036,10.036,0,0,0-4.538-7.861Z" transform="translate(-916.569 -138.517)" fill="#044ca4"/>
            </g>
          </g>
        </g>
        <g id="Group_884" data-name="Group 884" transform="translate(10.676 20.063)">
          <g id="Group_882" data-name="Group 882" transform="translate(4.344 90.41)">
            <path id="Path_2804" data-name="Path 2804" d="M974.494,543.051a16.219,16.219,0,0,0,7.339,12.71c4.054,2.34,7.339.444,7.339-4.236a16.22,16.22,0,0,0-7.339-12.711V536.82c5.008,2.891,9.065,9.92,9.065,15.7s-4.058,8.125-9.065,5.234-9.065-9.92-9.065-15.7Z" transform="translate(-972.768 -535.582)" fill="#ff8f64"/>
            <path id="Path_2805" data-name="Path 2805" d="M981.832,533.426v1.994c-4.052-2.34-7.339-.444-7.339,4.237l-1.726-1C972.768,532.879,976.826,530.536,981.832,533.426Z" transform="translate(-972.768 -532.189)" fill="#3680d8"/>
          </g>
          <g id="Group_883" data-name="Group 883" transform="translate(4.344 118.608)">
            <path id="Path_2806" data-name="Path 2806" d="M1014.023,657.03a16.222,16.222,0,0,0-7.339-12.712h0v-1.994a18.766,18.766,0,0,1,7.334,8.55c2.942,6.376,2.044,12.4-2.005,13.463l-1.016-2.2C1012.831,661.656,1014.023,659.85,1014.023,657.03Z" transform="translate(-997.619 -641.087)" fill="#3680d8"/>
            <path id="Path_2807" data-name="Path 2807" d="M981.831,638.931v1.993c-4.052-2.339-7.339-.443-7.339,4.238a16.22,16.22,0,0,0,7.339,12.71,5.785,5.785,0,0,0,4.313.871l1.016,2.2a6.911,6.911,0,0,1-5.329-1.077c-5.006-2.89-9.065-9.92-9.065-15.7S976.825,636.042,981.831,638.931Z" transform="translate(-972.766 -637.694)" fill="#ff3864"/>
          </g>
          <path id="Path_2808" data-name="Path 2808" d="M1492.344,853.376c3.11,1.795,2.7-2.761,5.534-1.127,2.645,1.527,2.241,6,5.518,7.894a2.735,2.735,0,0,0,2.922-.282V884.17l-20.071-11.587V838.2C1489.3,839.965,1489.235,851.581,1492.344,853.376Z" transform="translate(-1344.668 -666.006)" fill="#ffc398"/>
          <path id="Path_2809" data-name="Path 2809" d="M1506.319,899.247a7.368,7.368,0,0,0-2.921-3.967c-2.649-1.531-2.194,2.307-5.516.39s-2.364-5.549-5.1-7.13-2.4.706-3.884-.15-2.649-4.858-2.649-4.858V905.8l20.071,11.588Z" transform="translate(-1344.668 -699.22)" fill="#ff8f64"/>
          <path id="Path_2810" data-name="Path 2810" d="M1399.931,836.825a7.632,7.632,0,0,0,4.692.982c1.617-.258,3.2.336,5.555,1.719a3.231,3.231,0,0,0,3.935-.231v29.215l-20.25-11.69V836.183C1397.677,838.385,1397.976,835.783,1399.931,836.825Z" transform="translate(-1276.975 -664.525)" fill="#58b9fb"/>
          <path id="Path_2811" data-name="Path 2811" d="M1414.113,873.179V850.933s-1.147-2.036-4.74-3.93-2.841,2.116-5.3.7-3.017-2.634-6.186-4.464-4.028.6-4.028.6v17.65Z" transform="translate(-1276.975 -669.195)" fill="#3680d8"/>
          <path id="Path_2812" data-name="Path 2812" d="M1302.581,751.793c1.762,1.017,2.4,7.2,4.333,8.319s.955-2.014,3.6-.49,1.792,3.035,3.554,4.051,1.309-2.348,3.915-.9,2.656,5.771,2.656,5.771v23.339l-19.815-11.44V753.163S1300.821,750.776,1302.581,751.793Z" transform="translate(-1208.799 -602.505)" fill="#ff86b2"/>
          <path id="Path_2813" data-name="Path 2813" d="M1320.635,809.42V789.513s-.908-3.3-5.205-5.784-3.761,1.353-6.79-.4-2.817-4.969-7.819-7.855v22.5Z" transform="translate(-1208.799 -620.045)" fill="#ff3864"/>
          <path id="Path_2814" data-name="Path 2814" d="M1525.683,1000.343l9.531,5.5v-3.787l-9.531-5.5Z" transform="translate(-1373.563 -782.037)" fill="#ff8f64"/>
          <path id="Path_2815" data-name="Path 2815" d="M1486.248,977.573l9.53,5.5v-3.786l-9.53-5.5Z" transform="translate(-1344.668 -765.353)" fill="#ffc398"/>
          <path id="Path_2816" data-name="Path 2816" d="M1433.638,947.2l9.53,5.5v-3.787l-9.53-5.5Z" transform="translate(-1306.118 -743.097)" fill="#3680d8"/>
          <path id="Path_2817" data-name="Path 2817" d="M1394.2,924.431l9.53,5.5v-3.787l-9.53-5.5Z" transform="translate(-1277.221 -726.413)" fill="#58b9fb"/>
          <path id="Path_2818" data-name="Path 2818" d="M1339.779,893.013l9.53,5.5v-3.786l-9.53-5.5Z" transform="translate(-1237.345 -703.392)" fill="#ff3864"/>
          <path id="Path_2819" data-name="Path 2819" d="M1300.339,870.243l9.53,5.5v-3.787l-9.529-5.5Z" transform="translate(-1208.446 -686.708)" fill="#ff86b2"/>
          <path id="Path_2820" data-name="Path 2820" d="M975.311,358.842c9.354,5.4,8.33,13.931,15.164,17.876,10.814,6.244,7.824-32.542,17.66-26.864,12.2,7.045,4.548,39.738,25.131,51.621,14.754,8.518,12.718-17.062,24.409-10.312s12.244,29.273,21.013,34.335,11.1-23.8,17.238-20.254c7.469,4.312,9.7,66.011,26.119,75.49L956.513,385.167C964.6,389.833,965.957,353.442,975.311,358.842Z" transform="translate(-956.513 -307.758)" fill="#fff" opacity="0.5"/>
          <path id="Path_2821" data-name="Path 2821" d="M990.85,455.374c12.31,7.107,18.448,32.8,26.5,37.45,12.94,7.471,19.839-25.67,28.266-20.8,7.764,4.483,6.234,13.4,14.443,18.14,7.048,4.07,8.124-16.511,15.664-12.158,15.55,8.977,19.76,64.15,46.323,79.485L956.513,461.92C974.33,472.206,978.54,448.266,990.85,455.374Z" transform="translate(-956.513 -384.51)" fill="#ff3864"/>
          <path id="Path_2822" data-name="Path 2822" d="M977.512,430.954c8.294,4.788,8.32,14.56,20.643,21.674,18.52,10.692,18.713-29.7,33.568-21.121,13.312,7.686,17.544,56.676,29.744,63.719,14.049,8.111,14.869-.983,28.594,6.942s26.687,34.541,31.984,37.6L956.513,444.2C967.842,450.741,965.846,424.219,977.512,430.954Z" transform="translate(-956.513 -366.79)" fill="#ff8f64"/>
          <path id="Path_2823" data-name="Path 2823" d="M1002.839,491.58c7.54,4.354,8.615,12.5,15.664,16.565,8.21,4.739,6.678.378,14.443,4.861,8.427,4.866,15.326,22.018,28.266,29.489,8.05,4.648,14.189.333,26.5,7.44s16.519,18.893,34.336,29.179L956.516,483.548C983.078,498.883,987.29,482.6,1002.839,491.58Z" transform="translate(-956.515 -406.138)" fill="#3680d8"/>
          <path id="Path_2824" data-name="Path 2824" d="M1069.963,600.1l39.4,22.749v-2.588l-39.4-22.748Z" transform="translate(-1039.641 -489.642)" fill="#3680d8"/>
          <path id="Path_2825" data-name="Path 2825" d="M1069.963,621.547l39.4,22.749v-2.587l-39.4-22.749Z" transform="translate(-1039.641 -505.358)" fill="#3680d8"/>
          <path id="Path_2826" data-name="Path 2826" d="M1435.582,469.481l39.4,22.749v-2.587l-39.4-22.748Z" transform="translate(-1307.543 -393.934)" fill="#3680d8"/>
          <path id="Path_2827" data-name="Path 2827" d="M962.749,196.5l20.2,11.664v-2.588l-20.2-11.664Z" transform="translate(-961.082 -193.91)" fill="#3680d8"/>
          <path id="Path_2828" data-name="Path 2828" d="M1435.582,490.93l39.4,22.749v-2.587l-39.4-22.749Z" transform="translate(-1307.543 -409.651)" fill="#3680d8"/>
          <path id="Path_2829" data-name="Path 2829" d="M1069.963,643l39.4,22.749v-2.588l-39.4-22.748Z" transform="translate(-1039.641 -521.076)" fill="#3680d8"/>
          <path id="Path_2830" data-name="Path 2830" d="M1069.963,664.447l39.4,22.749v-2.587l-39.4-22.749Z" transform="translate(-1039.641 -536.793)" fill="#3680d8"/>
          <path id="Path_2831" data-name="Path 2831" d="M1069.963,724.708l39.4,22.749v-2.588l-39.4-22.748Z" transform="translate(-1039.641 -580.948)" fill="#3680d8"/>
          <path id="Path_2832" data-name="Path 2832" d="M1069.963,746.158l39.4,22.748v-2.588l-39.4-22.748Z" transform="translate(-1039.641 -596.665)" fill="#3680d8"/>
        </g>
      </g>
      <g id="Group_892" data-name="Group 892" transform="translate(169.786 99.464)">
        <path id="Path_2833" data-name="Path 2833" d="M756.517,881.078s1.476.88,3.15,1.732,4.968,2.525,5.848,4,1.22,2.951,0,3.463a10.846,10.846,0,0,1-6.358-.142c-1.93-.766-3.633-3.178-4.882-3.434s-4.173-.766-4.882-1.022-1.391-2.3-1.391-3.35a15.176,15.176,0,0,1,.511-2.924Z" transform="translate(-724.171 -775.595)" fill="#00328a"/>
        <path id="Path_2834" data-name="Path 2834" d="M690.317,915.112s-1.037,2.972-1.06,3.387a7.786,7.786,0,0,0,1.313,2.672,24.194,24.194,0,0,1,2.051,4.586,7,7,0,0,0,4.7,4.194c2.7.76,4.055.184,4.378-.622s-.368-3.388-1.2-4.931-3.064-5.184-3.064-5.184Z" transform="translate(-681.126 -801.76)" fill="#00328a"/>
        <path id="Path_2835" data-name="Path 2835" d="M752.028,693.083s2.061,7.834,2.011,12.834-2.114,15.1-2.475,19.432.672,13.555,1.238,16.184.985,5.643-.973,6.57-6.524.49-7.658-2.91c-.686-2.057-1.266-10.258-1.472-14.381s-.825-15.967-.825-15.967l1.65-17.02A30.727,30.727,0,0,0,752.028,693.083Z" transform="translate(-719.681 -639.071)" fill="#1c64bc"/>
        <path id="Path_2836" data-name="Path 2836" d="M692.4,698.288s-.927,4.638-.773,16.854-.674,14.638-1.008,16.185a50.937,50.937,0,0,0-1.879,9.072c-.258,3.866.928,14.071.618,16.7,0,0,1.41,5.605,4.324,6.294,2.989.706,4.774-.243,4.361-2.665s-1.3-18.627,1.5-25.07,3.937-14.226,4.5-17.628a69.028,69.028,0,0,0,.721-7.37,29.5,29.5,0,0,0,3.2-9.329S697.737,702.183,692.4,698.288Z" transform="translate(-680.721 -642.886)" fill="#367ed6"/>
        <path id="Path_2837" data-name="Path 2837" d="M689.052,568.515s3.2,8.627,3.221,10.218-3.639,8.594.888,10.307,11.666,2.8,15.215.72,4.109-3.5,4.109-5.337-.305-12.91-.367-15.6.007-7.555-.061-10.476-3.57-11.857-4.63-11.857a7.128,7.128,0,0,0-2.794,1.167s.209,5.238-1.415,5.769-10.708-2.706-10.708-2.706-4.2,3.094-5.119,4.015S688.683,566.5,689.052,568.515Z" transform="translate(-679.596 -531.657)" fill="#e6f6ff"/>
        <path id="Path_2838" data-name="Path 2838" d="M699.2,628.256c.856-2.692-1.9-8.321-2.365-11.318a11.164,11.164,0,0,0-2.469-5.2s-2.019,1.223-2.325.918l-.541-.183h0c.32,1.759.61,3.229.725,3.853,0,0,3.2,8.627,3.22,10.218s-3.639,8.594.888,10.307c.765.289,1.606.56,2.49.8A20.917,20.917,0,0,1,699.2,628.256Z" transform="translate(-682.773 -579.467)" fill="#c7deeb"/>
        <path id="Path_2839" data-name="Path 2839" d="M712.417,535.545l1.107-3.869,8.541,6.464s-.651,3.4-.207,5,1.182,3.311-1.775,3.607-8.988-6.565-8.988-6.565S713.057,537.783,712.417,535.545Z" transform="translate(-697.129 -520.803)" fill="#d9a782"/>
        <path id="Path_2840" data-name="Path 2840" d="M745.514,577.117l.4-2.651-2.827-2.029L741.958,575l-.38,1.3,2.523,1.25c.363,2.312,2.885,20.083,2.608,27.968l1.809,1.845,1.242-2.576S748.907,585.546,745.514,577.117Z" transform="translate(-719.464 -550.67)" fill="#b00052"/>
        <path id="Path_2841" data-name="Path 2841" d="M708.834,553.03a15.85,15.85,0,0,0,9.027,5.187l-1.158,4.922s-7.625-5.034-9.551-7.628Z" transform="translate(-694.24 -536.45)" fill="#fdfdfd"/>
        <path id="Path_2842" data-name="Path 2842" d="M748.367,554.316l.35-1.286c1.883,2.291,1.9,8.436,1.9,8.436l-3.393-3.249C748.73,557.089,748.367,554.316,748.367,554.316Z" transform="translate(-723.597 -536.45)" fill="#fdfdfd"/>
        <g id="Group_888" data-name="Group 888" transform="translate(0 23.076)">
          <g id="Group_887" data-name="Group 887" transform="translate(3.243 41.979)">
            <path id="Path_2843" data-name="Path 2843" d="M671.369,734.643a4.09,4.09,0,0,0-.4,1.954,24.068,24.068,0,0,0,.5,4.541c.224.689,1.21,1.377,1.452,1.675a5.406,5.406,0,0,0,1.824,1.842,21.055,21.055,0,0,0,1.843,2.81c.3.131.893-.428.633-.968a12.433,12.433,0,0,1-.521-1.377s1.042-.037.912-.409a2.876,2.876,0,0,0-.643-.884c-.1-.1-.977-.94-.977-.94s.13-1.9.168-2.214.018-1.228.018-1.228a1.126,1.126,0,0,1,.81.809,5.24,5.24,0,0,0,1.535,2.653c.67.372,1.34.037,1.1-.632a26.593,26.593,0,0,1-1.191-3.369A6.41,6.41,0,0,0,677,736.3a25.429,25.429,0,0,0-2.148-1.9S672.119,734.588,671.369,734.643Z" transform="translate(-670.971 -734.403)" fill="#ffcda8"/>
            <path id="Path_2844" data-name="Path 2844" d="M676,762.325c-.246-.548-.756-2.289-.756-2.289l-.491-.372a6.5,6.5,0,0,1-1.3-.317,3.412,3.412,0,0,1-.875-.83c.025.116.05.215.074.29.224.689,1.21,1.377,1.452,1.675a5.406,5.406,0,0,0,1.824,1.842l.1.178A.387.387,0,0,0,676,762.325Z" transform="translate(-672.144 -752.072)" fill="#d9a782"/>
            <g id="Group_886" data-name="Group 886" transform="translate(5.003 8.149)">
              <path id="Path_2845" data-name="Path 2845" d="M689.711,765.229s.01-.134.023-.336A.443.443,0,0,0,689.711,765.229Z" transform="translate(-689.689 -764.893)" fill="#d9a782"/>
              <path id="Path_2846" data-name="Path 2846" d="M690.748,767.088c-.1-.1-.977-.94-.977-.94.13.447.575,1.836.707,2.233,0,0,1.042-.037.912-.409A2.877,2.877,0,0,0,690.748,767.088Z" transform="translate(-689.749 -765.813)" fill="#d9a782"/>
            </g>
          </g>
          <path id="Path_2847" data-name="Path 2847" d="M665.96,619.314s-.826,1.47-3.948,1.135l-.9-2.657a9.943,9.943,0,0,1-.826-2.218c-.257-1.161-1.316-10.037-1.419-11.638a98.509,98.509,0,0,1,.413-11.068c.335-2.219,2.374-7.276,2.658-8.179a10.992,10.992,0,0,1,4.7-7.353s5.625,4,4.8,7.379a105.538,105.538,0,0,1-3.587,10.553c-.567,1.419-2.784,5.16-2.669,5.444a78.913,78.913,0,0,1,.888,10.5c-.128,2.786-.387,6.088-.387,6.088Z" transform="translate(-658.836 -577.336)" fill="#e6f6ff"/>
          <path id="Path_2848" data-name="Path 2848" d="M675.158,663.77a13.093,13.093,0,0,1-2.13.568s2.246,3.664,2.322,5.934-.012,9.3-.192,9.7a.841.841,0,0,1-.66.439l-.516-2.5.155,2.761-1.677.619h1.213l.472,2.4a2.7,2.7,0,0,0,1.8-1.056l-.284-2.013s.258-3.3.387-6.088a78.979,78.979,0,0,0-.889-10.5.565.565,0,0,1,.068-.282A.354.354,0,0,0,675.158,663.77Z" transform="translate(-668.819 -640.652)" fill="#c7deeb"/>
        </g>
        <path id="Path_2849" data-name="Path 2849" d="M701.083,938.417a1.076,1.076,0,0,1-.053.2c-.323.807-1.682,1.383-4.378.622a7.006,7.006,0,0,1-4.7-4.194,24.178,24.178,0,0,0-2.051-4.585,7.787,7.787,0,0,1-1.313-2.673,5.864,5.864,0,0,0-.148,2.558,13.319,13.319,0,0,0,1.669,2.143h.553s.322.829.552,1.5a7.96,7.96,0,0,0,1.475,3.226,9.38,9.38,0,0,0,4.562,2.649c1.751.392,3.364,0,3.733-.484A1.363,1.363,0,0,0,701.083,938.417Z" transform="translate(-680.457 -811.045)" fill="#00328a"/>
        <path id="Path_2850" data-name="Path 2850" d="M765.581,899.854a10.845,10.845,0,0,1-6.358-.142c-1.93-.766-3.633-3.178-4.882-3.435s-4.172-.766-4.882-1.022c-.6-.214-1.171-1.689-1.341-2.779h0a5.851,5.851,0,0,0,.229,2.256,2.654,2.654,0,0,0,1.942,2c.908.185,3.261.5,3.261.5l.114-.708a12.334,12.334,0,0,1,1.687.638c.6.312,1.672,1.815,2.921,2.5a11.677,11.677,0,0,0,5.061,1.078c1.886.028,2.849-.709,2.963-1.063a1.468,1.468,0,0,0,0-.54A1.2,1.2,0,0,1,765.581,899.854Z" transform="translate(-724.236 -785.174)" fill="#00328a"/>
        <g id="Group_890" data-name="Group 890" transform="translate(27.83 9.683)">
          <g id="Group_889" data-name="Group 889" transform="translate(28.444)">
            <path id="Path_2851" data-name="Path 2851" d="M879.95,527.347c-.218-.218-.7-.189-1.817.474s-3.712,2.462-4.715,3.125a10.6,10.6,0,0,0-2.784,2.234c-.436.72-1.243,2.311-1.243,2.311l1.413,3.654s1.307-.227,1.647-.3a19.874,19.874,0,0,0,3.465-.946c.7-.4,2.329-1.25,2.557-1.837s-.644-.89-.644-.89a3.4,3.4,0,0,0,.227-1.42.953.953,0,0,0-.53-.565,2.591,2.591,0,0,0-.246-1.083,2.474,2.474,0,0,0-.966-.567,5.621,5.621,0,0,1,.644-.834C878.066,529.781,880.67,528.067,879.95,527.347Z" transform="translate(-869.391 -527.226)" fill="#ffcda8"/>
            <path id="Path_2852" data-name="Path 2852" d="M877.633,554.2c-.341-.076-.228-.947-.228-.947l1.591-.568s-1.155.322-1.25.113-.359-.966-.359-.966l1.022-.643a4.173,4.173,0,0,1-1.022.3c-.191-.038-.72-.643-.72-.643s.852,1.533.7,1.931-.7.36-.7.36l-1.458-.852s.076.645-.946,1.193a9.3,9.3,0,0,1-3,.613l.912,2.361s1.307-.227,1.647-.3a10.46,10.46,0,0,0,5.355-2.091A7.95,7.95,0,0,1,877.633,554.2Z" transform="translate(-870.765 -544.537)" fill="#d9a782"/>
            <path id="Path_2853" data-name="Path 2853" d="M887.319,544.457a1.618,1.618,0,0,1-.171.624,2.292,2.292,0,0,1-.738.36,6.165,6.165,0,0,0-1.742-.34s.871-.322.909-.909C885.576,544.192,886.106,545.081,887.319,544.457Z" transform="translate(-880.584 -539.657)" fill="#d9a782"/>
          </g>
          <path id="Path_2854" data-name="Path 2854" d="M791.409,549.231a12.118,12.118,0,0,1,2.634,3.733l-1.593,1.591a6.389,6.389,0,0,1-.637,1.447c-.289.347-4.2,4.2-5.584,5.7s-5.7,5.092-8.189,4.746-11.633-7.321-11.633-7.321l-3.443-12.849A6.262,6.262,0,0,1,768,547.726c2.4,2.025,3.733,4.514,4.717,5.7a65.313,65.313,0,0,0,5.5,4.71s3.675-2.539,5.44-3.552,4.514-3.473,4.948-3.473a.979.979,0,0,0,.666-.232Z" transform="translate(-762.965 -541.13)" fill="#e6f6ff"/>
          <path id="Path_2855" data-name="Path 2855" d="M791.624,575.688c1.389-1.5,5.3-5.353,5.585-5.7a6.4,6.4,0,0,0,.637-1.447l1.592-1.591a7.583,7.583,0,0,0-.888-1.66l-1.659,1.66-1.128-1.129.665,1.379-.943,1.584,1.175-1.175.318.874c-.115.926-3.124,3.068-4.542,4.564a36.764,36.764,0,0,1-7.321,5.158c-1.707.811-2.083-.231-4.543-1.822s-6.481-6.4-8.8-8.16a2.46,2.46,0,0,0-1.447-.614l1.475,5.5s9.144,6.974,11.633,7.321S790.236,577.193,791.624,575.688Z" transform="translate(-768.36 -555.117)" fill="#c7deeb"/>
        </g>
        <g id="Group_891" data-name="Group 891" transform="translate(12.814)">
          <path id="Path_2856" data-name="Path 2856" d="M723.791,501.567a5.771,5.771,0,0,0,.88,1.129c.369.42,1.358,1.5.958,1.838a6,6,0,0,1-1.269.69s.26.789.04,1.019a.948.948,0,0,0-.28.719,1.616,1.616,0,0,1-.2.621,1.916,1.916,0,0,0-.13.849c.059.379.08,1.269-1.2,1.644a10.226,10.226,0,0,1-6.191-.595c-1.878-.969-2.69-3.112-3.849-4.821s-5.183-3.511-4.574-6.46,2.954-5.173,7.673-5.3,7.2,2.235,7.922,4.52.521,3.353.372,3.551A1.219,1.219,0,0,0,723.791,501.567Z" transform="translate(-707.608 -492.388)" fill="#ffcda8"/>
          <path id="Path_2857" data-name="Path 2857" d="M715.922,503.007c-.5.078-2.583-1.019-3.241,0s-1.539,2.557-3.426,2.731a11.968,11.968,0,0,0-.953-2.548c-.348-.348-1.78-1.6-1.482-5.448s2.186-5.761,5.861-6.457,6.556-.1,8.568,1.366,2.384,3.179.819,3.552-3.823,1.142-3.8,2.383a2.341,2.341,0,0,1-1.018,2.385C716.455,501.491,716.555,502.907,715.922,503.007Z" transform="translate(-706.779 -490.995)" fill="#412999"/>
          <path id="Path_2858" data-name="Path 2858" d="M718.352,527.663c-.075.06-.152.118-.238.175-.8.521-.695,1.937-1.328,2.036-.5.078-2.583-1.019-3.241,0s-1.539,2.558-3.427,2.731a11.975,11.975,0,0,0-.953-2.548,4.334,4.334,0,0,1-1.207-2.036A27.662,27.662,0,0,0,718.352,527.663Z" transform="translate(-707.643 -517.863)" fill="#281080"/>
          <path id="Path_2859" data-name="Path 2859" d="M728.765,535.046c-.191-.362-.671-1.117-1.39-.894a1.517,1.517,0,0,0-.77,2.185c.546.919,2.209,1.838,2.408,1.366A5.53,5.53,0,0,0,728.765,535.046Z" transform="translate(-721.15 -522.588)" fill="#ffcda8"/>
        </g>
      </g>
      <g id="Group_898" data-name="Group 898" transform="translate(190.293 316.694)">
        <path id="Path_2860" data-name="Path 2860" d="M837.662,1274.827c-.745,3.726-1.522,11.466-2.169,14.867a26.41,26.41,0,0,0-.614,8.193,33.529,33.529,0,0,0,1.254,5.034s1.207,1.709.2,2.179-1.826-.444-2.8-1.856a49.516,49.516,0,0,0-4.653-4.8c.314-.314.582-.492.712-2.111s-1.3-8.873-1.719-11.79,1.98-8.971,2.5-10.777-.256-4.475-1.037-7.164-1.135-11.112-1.135-11.112-1.583-9.358-.385-12.016,11.074-1.423,12.531.331,1.655,8.706,1.134,13.694S838.407,1271.1,837.662,1274.827Z" transform="translate(-812.292 -1189.55)" fill="#9f9292"/>
        <path id="Path_2861" data-name="Path 2861" d="M783.106,1282.223l-.236,2.475s1.21.119.912,1.091-1.266.325-1.412-.47a2.706,2.706,0,0,0-1.445-1.651c-.528-.294-2.769-1.445-2.769-1.445a13.13,13.13,0,0,0,.893-2.325c.244-1.02-.5-7.072-.783-10.729s2.965-8.471,4.089-11.435-.469-9.667-.906-15.855,1.883-9.7,1.883-9.7l9.88,4.231v6.156s-1.07,5.773-2.134,10.75a53.587,53.587,0,0,1-4.057,10.859c-.688,1.661-2.678,9.263-3.241,11.981A42.471,42.471,0,0,0,783.106,1282.223Z" transform="translate(-776.232 -1182.401)" fill="#9f9292"/>
        <path id="Path_2862" data-name="Path 2862" d="M842.749,1284.114c.995-3.672,2.447-11.364,1.413-16.569s1.383-25.243,1.383-25.243h0c2.605.249,5.112.953,5.791,1.771,1.46,1.754,1.655,8.706,1.134,13.694s-3.076,13.6-3.823,17.329-1.522,11.466-2.169,14.866a26.423,26.423,0,0,0-.614,8.193,33.484,33.484,0,0,0,1.254,5.034s1.206,1.709.2,2.179-1.826-.444-2.8-1.855a17.382,17.382,0,0,0-1.766-2c.053-.216.124-.462.216-.749a4.978,4.978,0,0,0,0-2.871C843.015,1297.585,841.75,1287.788,842.749,1284.114Z" transform="translate(-823.279 -1189.817)" fill="#8d8081"/>
        <path id="Path_2863" data-name="Path 2863" d="M785.167,1279.24c.289-5.173,1.029-9.565,1.725-11.249s2.67-4.271,2.917-8.417c.176-2.943.778-14.882,1.111-21.554l6.237,2.671v6.156s-1.07,5.773-2.134,10.75a53.552,53.552,0,0,1-4.056,10.858c-.688,1.661-2.678,9.263-3.241,11.981a42.541,42.541,0,0,0-.675,6.066l-.235,2.475s1.209.119.912,1.09-1.266.325-1.412-.469a2.706,2.706,0,0,0-1.445-1.651c-.228-.129-.779-.415-1.33-.7A29.734,29.734,0,0,0,785.167,1279.24Z" transform="translate(-780.177 -1186.68)" fill="#8d8081"/>
        <path id="Path_2864" data-name="Path 2864" d="M831.263,1115.636l.079.12,3.213,1.65.861,2.632-5.175-2.337Z" transform="translate(-814.397 -1097.005)" fill="#fff"/>
        <path id="Path_2865" data-name="Path 2865" d="M870.779,1186.644l-7.387-3.532,1.633-2.9Z" transform="translate(-838.687 -1144.318)" fill="#092a4e"/>
        <path id="Path_2866" data-name="Path 2866" d="M889.3,1169.515a14.668,14.668,0,0,0,0-2.74c-.162-.167-3.974-1-3.974-1Z" transform="translate(-854.761 -1133.743)" fill="#ffcda8"/>
        <path id="Path_2867" data-name="Path 2867" d="M896.507,1169.4a.158.158,0,0,1,.058.033,14.678,14.678,0,0,1,0,2.739l-1.326-1.25C895.682,1170.356,896.124,1169.84,896.507,1169.4Z" transform="translate(-862.023 -1136.398)" fill="#d9a782"/>
        <path id="Path_2868" data-name="Path 2868" d="M826.469,1453.365a4.728,4.728,0,0,0-2.283,2.279c-.456,1.431.573,2.639.926,3.965a28.934,28.934,0,0,1,.354,4.8l.62-.176s-.06-3.24.383-3.975,1.561-.706,2.475,0,3.533,3.268,5.035,3.268,6.332-4.093,6.1-5.241-6.359-.441-6.359-.441,1.206,1.709.2,2.178-1.826-.444-2.8-1.855A49.414,49.414,0,0,0,826.469,1453.365Z" transform="translate(-809.876 -1344.471)" fill="#003199"/>
        <path id="Path_2869" data-name="Path 2869" d="M772.881,1418.2s2.241,1.152,2.769,1.444a2.7,2.7,0,0,1,1.445,1.651c.146.795,1.118,1.442,1.412.47s-.912-1.091-.912-1.091l.235-2.474s1.5-.589,1.767-.412.145,5.33-.912,6.39c-1.473,1.474-3.68-.263-4.27-.233a2.428,2.428,0,0,0-1.681,1.678c-.468,1.446-.735,2.623-.735,2.623l-.589-.179s.765-2.858.38-4.094-1-2.268-.792-3.272A7.231,7.231,0,0,1,772.881,1418.2Z" transform="translate(-770.957 -1318.378)" fill="#003199"/>
        <path id="Path_2870" data-name="Path 2870" d="M813.072,1232.042s.643,2.33.805,8.625-2.7,14.634-2.7,14.634a11.321,11.321,0,0,1-6.952,1.135c-1.994-.253-12.719-4.714-13.9-7.676,0,0-1.334-12.207-1.334-16.055s3.1-8.657,3.1-8.657S811.17,1223.951,813.072,1232.042Z" transform="translate(-784.177 -1176.443)" fill="#1c64bc"/>
        <path id="Path_2871" data-name="Path 2871" d="M813.072,1232.042s.643,2.33.805,8.625-2.7,14.634-2.7,14.634a10.638,10.638,0,0,1-5.243,1.237,67.256,67.256,0,0,0-.429-14.078c-.538-2.21-5.377-2.925-10.276-4.6a15.276,15.276,0,0,1-6.212-4.121c-.017-.387-.022-.736-.022-1.034,0-3.847,3.1-8.657,3.1-8.657S811.17,1223.951,813.072,1232.042Z" transform="translate(-784.177 -1176.443)" fill="#034ba3"/>
        <path id="Path_2872" data-name="Path 2872" d="M805.427,1118.443s2.343,6.709,2.11,8.867-1.438,6.991-1.047,9.1,2.878,13.465,3.3,16.139c0,0-1.051,1.915-7.726,2.335s-15.412-3.583-17.852-6.728a63.747,63.747,0,0,1,3.1-8.367c1.407-2.677,4.129-5.726,3.378-8.166s-7.459-13.559-7.647-16.279.752-5.068,2.2-5.677,6.728.328,6.728.328a46.121,46.121,0,0,1,7.2,3.453C801.62,1114.9,804.554,1117.148,805.427,1118.443Z" transform="translate(-779.797 -1092.483)" fill="#367ed6"/>
        <path id="Path_2873" data-name="Path 2873" d="M841.034,1153.866c.091-2.915,4.228-5.852,7.188-7.583.62,1.88,2,6.324,1.82,8.006-.236,2.16-1.437,6.991-1.047,9.1s2.878,13.465,3.3,16.139c0,0-1.051,1.915-7.725,2.335a22.006,22.006,0,0,1-2.523.008C844.974,1171.784,840.9,1158.253,841.034,1153.866Z" transform="translate(-822.302 -1119.461)" fill="#1d65bd"/>
        <path id="Path_2874" data-name="Path 2874" d="M846.158,1134.411c.924-.242,4.666,2.041,6.592,4.95s7.388,7.95,8.092,9.406.83,4.529-.377,5.3c-1.752,1.126-5.467-1.66-7.438-3.35s-7.244-5.706-8.886-9.6S844.185,1134.927,846.158,1134.411Z" transform="translate(-824.094 -1110.75)" fill="#367ed6"/>
        <g id="Group_897" data-name="Group 897" transform="translate(4.044)">
          <path id="Path_2875" data-name="Path 2875" d="M806.288,1073.649s-.237-3.847.336-5.269,1.072-1.66,1.714-1.811c.5-.116,1.529.171,2.692-2.145s.721-3.3.918-4.289a6.741,6.741,0,0,0,.328-2.628c-.171-.956-.487-4.513-3.287-5.725a9.83,9.83,0,0,0-8.084.077,7.378,7.378,0,0,0-3.329,6.217c.012,2.62,1.44,4.254,1.462,6.04a9.777,9.777,0,0,1-2.143,5.361c-1.07,1.382,1.154,3.329,2.674,4.036A8.868,8.868,0,0,0,806.288,1073.649Z" transform="translate(-793.802 -1049.613)" fill="#ffcda8"/>
          <path id="Path_2876" data-name="Path 2876" d="M825.5,1090.873a32.573,32.573,0,0,1-.085-3.583l-3.236,2.437s.245,6.6-1.65,9.47a1.759,1.759,0,0,0-.208,1.676,9,9,0,0,0,3.245-.6s-.237-3.847.336-5.269,1.072-1.659,1.715-1.81a3.569,3.569,0,0,0,1.064-.232A3.107,3.107,0,0,1,825.5,1090.873Z" transform="translate(-811.082 -1076.235)" fill="#d9a782"/>
          <path id="Path_2877" data-name="Path 2877" d="M836.517,1088.539c-.8-5.189-2.54-8.962-.7-10.816l.432-.638c.035-.008.239.715.824.559.289-.08.673-1.656,1.017-2.557.085-.217.2-.5.337-.8a27.417,27.417,0,0,1-2.308,2.148l-.153-.167a17.846,17.846,0,0,0,3.667-4.14,17.293,17.293,0,0,1-3.142,3.1c-1.2.679-2.631,1.445-2.1,4.989.418,2.8,2.065,7.488,1.958,10.646A5.631,5.631,0,0,0,836.517,1088.539Z" transform="translate(-821.396 -1065.125)" fill="#6d2d3d"/>
          <path id="Path_2878" data-name="Path 2878" d="M803.277,1048.349c-1.09-1.326-2.984-2.794-7.29-2.337a7.09,7.09,0,0,0-4.582,2.954c-.93,1.277-1.775,3.109-1.56,6.78s.022,6.775-2.357,9.141c-1.322,1.318-1.968,5.049-.758,7.308a6.757,6.757,0,0,1,.12-4.773c.012-.035.023-.057.023-.057a.5.5,0,0,0-.023.057,7.012,7.012,0,0,0,.413,5.531,3.115,3.115,0,0,0,.868.671c3.117,1.607,7.131,2.808,8.023,2.723a5.117,5.117,0,0,0,2.542-1.317,8.454,8.454,0,0,1-1.029,1.081c1.866-.812,2.838-2.945,3.236-4.089a11.488,11.488,0,0,1-.749,2.547,9.468,9.468,0,0,0,1.3-3.583,16.137,16.137,0,0,0-.723-4.194h0c-.817-3.879-1.75-6.731-.227-8.266l.432-.638c.035-.008.239.716.824.559.289-.08.673-1.656,1.018-2.556.084-.217.2-.5.336-.8C806.782,1052.045,803.277,1048.349,803.277,1048.349Z" transform="translate(-786.089 -1045.927)" fill="#e54b5a"/>
          <path id="Path_2879" data-name="Path 2879" d="M804.093,1073.346c-.8,1.336-2.2,1.666-3.83,3.212s-1.6,5.246-.6,8.615a20.939,20.939,0,0,1,.9,6.115,14.687,14.687,0,0,0-1.374-5.356s1.27,3.538.589,5.943a6.214,6.214,0,0,1-2.836,3.52,10.6,10.6,0,0,0,1.526-2.577,6.141,6.141,0,0,1-2.962,2.661,10.6,10.6,0,0,0,2.686-9.5c.2,8.79-5.323,9.126-5.323,9.126l.447-.859c-.3.329-1.03.886-1.529.551a3.6,3.6,0,0,1-.871-1.47l-.046,1.216a5.178,5.178,0,0,1-1.208-1.58l-.041,1.022c-1.786-2.616-.243-8.085-.243-8.085a11.461,11.461,0,0,0-.734,7.586c-1.413-1.3-1.3-4.217-1.3-4.217a4.33,4.33,0,0,0-.081,2.142c-.289-.717-.721-2.608.914-5.448a13.333,13.333,0,0,0,1.833-4.681,11.04,11.04,0,0,1-.89,2.014,10.14,10.14,0,0,0,.8-5.427h0c0,2.792-.5,5.191-2.423,7.107-1.322,1.319-1.968,5.05-.758,7.309a6.756,6.756,0,0,1,.12-4.772.591.591,0,0,1,.023-.057.456.456,0,0,0-.023.057,7.01,7.01,0,0,0,.413,5.53,3.115,3.115,0,0,0,.868.671c3.117,1.607,7.131,2.808,8.023,2.723a5.114,5.114,0,0,0,2.542-1.318,8.434,8.434,0,0,1-1.029,1.082c1.866-.812,2.838-2.946,3.236-4.09a11.5,11.5,0,0,1-.749,2.546,9.47,9.47,0,0,0,1.3-3.584,16.15,16.15,0,0,0-.723-4.195h0c-.817-3.878-1.75-6.731-.227-8.265l.432-.638c.035-.008.239.715.824.558.289-.079.673-1.656,1.018-2.557.084-.216.2-.5.336-.8l-1.165.562A7.46,7.46,0,0,0,804.093,1073.346Z" transform="translate(-786.089 -1066.018)" fill="#bf2534"/>
          <path id="Path_2880" data-name="Path 2880" d="M838.2,1091.218c-.105.166-1.31.269-1.109-1.805s1.591-2.559,1.561-1.041A11.685,11.685,0,0,1,838.2,1091.218Z" transform="translate(-823.444 -1076.378)" fill="#ffcda8"/>
          <path id="Path_2881" data-name="Path 2881" d="M806.193,1046.013a7.1,7.1,0,0,0-4.582,2.954c-.93,1.278-1.775,3.109-1.56,6.78.042.719.068,1.419.065,2.094a15.613,15.613,0,0,1,.436,1.635,21.406,21.406,0,0,1-.355,4.838,16.161,16.161,0,0,0,.664-3.192c.3,1.3-.559,5.638-.559,5.638.883-1.524,1.687-5.2,1.508-10.3a10.838,10.838,0,0,1,4.455-9.133,6.647,6.647,0,0,1,4.674-.857A9.956,9.956,0,0,0,806.193,1046.013Z" transform="translate(-796.294 -1045.928)" fill="#bf2534"/>
          <g id="Group_893" data-name="Group 893" transform="translate(4.888 5.098)">
            <path id="Path_2882" data-name="Path 2882" d="M808.235,1065a4.2,4.2,0,0,0-.537.623,6.659,6.659,0,0,0-.966,1.926,7.407,7.407,0,0,0-.307,1.417,12.462,12.462,0,0,0-.049,1.623c.02,1.135.063,2.351.055,3.577a24.885,24.885,0,0,1-.734,6.629,8.169,8.169,0,0,1-.844,2,5.371,5.371,0,0,1-.476.673,5.234,5.234,0,0,0,.459-.7,8.661,8.661,0,0,0,.783-2.041,18.637,18.637,0,0,0,.488-3.044c.1-1.124.134-2.326.14-3.524s-.022-2.4-.025-3.536a12.01,12.01,0,0,1,.074-1.638,7.166,7.166,0,0,1,.33-1.438,6.672,6.672,0,0,1,1.038-1.94A4.547,4.547,0,0,1,808.235,1065Z" transform="translate(-804.379 -1065.001)" fill="#bf2534"/>
          </g>
          <g id="Group_894" data-name="Group 894" transform="translate(7.451 7.901)">
            <path id="Path_2883" data-name="Path 2883" d="M813.966,1093.28a24.334,24.334,0,0,0,.957-2.647,19.1,19.1,0,0,0,.633-2.824,10.219,10.219,0,0,0,.1-1.631c-.015-.552-.078-1.13-.115-1.7a45.419,45.419,0,0,1-.211-6.264,8.7,8.7,0,0,1,.328-2.019,2.759,2.759,0,0,1,.32-.7,2.716,2.716,0,0,0-.3.724,9.119,9.119,0,0,0-.264,2.036,57.75,57.75,0,0,0,.3,6.21c.039.565.093,1.122.111,1.686a10.11,10.11,0,0,1-.118,1.644,17.319,17.319,0,0,1-.695,2.835A22.19,22.19,0,0,1,813.966,1093.28Z" transform="translate(-813.966 -1075.491)" fill="#bf2534"/>
          </g>
          <g id="Group_895" data-name="Group 895" transform="translate(7.815 2.398)">
            <path id="Path_2884" data-name="Path 2884" d="M821.751,1054.9a4.364,4.364,0,0,0-1.558.365,6.056,6.056,0,0,0-1.422.84,7.625,7.625,0,0,0-1.323,1.368,11.9,11.9,0,0,0-1.645,3.16c-.323.916-.468,1.546-.474,1.544a15.993,15.993,0,0,1,.394-1.594,10.557,10.557,0,0,1,1.582-3.222,6.945,6.945,0,0,1,1.354-1.365,5.845,5.845,0,0,1,1.48-.809A4.2,4.2,0,0,1,821.751,1054.9Z" transform="translate(-815.329 -1054.898)" fill="#bf2534"/>
          </g>
          <g id="Group_896" data-name="Group 896" transform="translate(10.02 4.279)">
            <path id="Path_2885" data-name="Path 2885" d="M829.345,1061.937a4.614,4.614,0,0,0-.815.368,6.944,6.944,0,0,0-1.82,1.47,7.414,7.414,0,0,0-1.555,2.916,9.652,9.652,0,0,0-.323,1.858c-.054.646-.088,1.306-.1,1.968-.031,1.325.053,2.642.066,3.879a15.95,15.95,0,0,1-.3,3.349,19.452,19.452,0,0,1-.621,2.281c-.181.539-.3.841-.3.841s.11-.312.276-.866a20.61,20.61,0,0,0,.558-2.312,16.63,16.63,0,0,0,.229-3.337c-.031-1.223-.123-2.531-.09-3.837.008-.653.046-1.306.105-1.951a9.662,9.662,0,0,1,.336-1.873,7.444,7.444,0,0,1,1.621-2.947,6.835,6.835,0,0,1,1.891-1.457A4.5,4.5,0,0,1,829.345,1061.937Z" transform="translate(-823.579 -1061.937)" fill="#bf2534"/>
          </g>
        </g>
      </g>
      <g id="Group_904" data-name="Group 904" transform="translate(55.637 231.639)">
        <g id="Group_900" data-name="Group 900" transform="translate(21.855 24.325)">
          <g id="Group_899" data-name="Group 899" transform="translate(0.591)">
            <path id="Path_2886" data-name="Path 2886" d="M362.331,821.992s-1.524.7-1.349,1.049.791,1.034.766,1.1-.28.735-.29.768-.139.864-.139.864-1.188-.06-1.233.09a1.23,1.23,0,0,0,.082.511l-.174.743a2.711,2.711,0,0,1-1.421-.079c-.746-.256-3.223-.873-3.223-.873l-2.873.093-1.363-3.713H354.5s1.257-1.811,1.765-2.475a6.443,6.443,0,0,1,2.409-1.326,3.041,3.041,0,0,1,2.016.549c.407.289.508.848-.014.859a6.258,6.258,0,0,1-1.429-.254s-1.208.6-.95.93,3.3.474,3.3.474Z" transform="translate(-351.115 -818.699)" fill="#f2a983"/>
            <path id="Path_2887" data-name="Path 2887" d="M363.844,827.947s.128-.829.139-.864.266-.7.29-.767-.593-.754-.766-1.1,1.349-1.049,1.349-1.049l-.734-.689s-3.034-.147-3.3-.474.95-.93.95-.93a6.269,6.269,0,0,0,1.429.255c.251-.006.357-.137.355-.305a2.108,2.108,0,0,1-.774,0,10.886,10.886,0,0,1-1.463-.361,4.415,4.415,0,0,0-.956,1.048,10.045,10.045,0,0,1-.731,2.291,2.872,2.872,0,0,1-1.141,1.118s2.1.232,2.095,1.034-.165,1.292-.874,1.13a12.158,12.158,0,0,1-2.373-1.268l-2.779.218.443,1.2,2.873-.093s2.476.617,3.222.873a2.711,2.711,0,0,0,1.421.079l.174-.744a1.229,1.229,0,0,1-.082-.511C362.656,827.887,363.844,827.947,363.844,827.947Z" transform="translate(-353.639 -820.87)" fill="#d9a782"/>
          </g>
          <path id="Path_2888" data-name="Path 2888" d="M352.071,832.174l.218,4.279-2.87.185L348.9,832.1Z" transform="translate(-348.904 -828.52)" fill="#1b4670"/>
        </g>
        <path id="Path_2889" data-name="Path 2889" d="M367.028,856.35c.012-.047-.022-.743-.2-.809s-2.689-.808-3.27-.949-2.082-.383-2.152.13,2.107.895,2.107.895l.046.733s-1.244-.383-1.6-.465-1.327-.128-1.385.2.908.607,1.548.815,1.679.513,1.679.513v.231s-1.425-.243-1.947-.372-1.385-.4-1.465-.2-.5.532,1.011,1.057,2.664.764,2.687.882.1.364.023.41-.233.1-1.059-.147-1.861-.643-2.013-.619-.558.207-.151.568a9.657,9.657,0,0,0,3.2,1.349C364.607,860.527,367.028,856.35,367.028,856.35Z" transform="translate(-335.378 -820.541)" fill="#d9a782"/>
        <g id="Group_901" data-name="Group 901" transform="translate(14.157 17.555)">
          <path id="Path_2890" data-name="Path 2890" d="M332.9,864.106l.474.657-12.8-5.684-.475-.657Z" transform="translate(-320.098 -841.035)" fill="#aec5d2"/>
          <path id="Path_2891" data-name="Path 2891" d="M375.512,811.761l-7.05,18.328-.474-.658,7.049-18.332Z" transform="translate(-355.189 -806.36)" fill="#aec5d2"/>
          <path id="Path_2892" data-name="Path 2892" d="M339.946,798.106,332.9,816.437l-12.8-5.684,7.409-17.388Z" transform="translate(-320.098 -793.366)" fill="#c7deeb"/>
        </g>
        <path id="Path_2893" data-name="Path 2893" d="M330.726,1099.38v0c2.262,1.531,4.016,6.242,4.461,7.45a1.734,1.734,0,0,0,2.021,1.229c.419-.18-.694-.694-.694-.694-.257-.025-.449-4.107-.257-5.37s-.256-3.335-.449-5.26-.148-9.408-.148-9.408h-6.632s.6,2.331,1.005,4.981S330.726,1099.38,330.726,1099.38Z" transform="translate(-312.485 -991.208)" fill="#b3815c"/>
        <path id="Path_2894" data-name="Path 2894" d="M334.295,1119.55v0A9.916,9.916,0,0,1,337,1123c.175-2.357.229-5.491.229-5.491l-3.33-2.653C334.14,1117.172,334.295,1119.55,334.295,1119.55Z" transform="translate(-316.053 -1011.379)" fill="#b0795b" opacity="0.5"/>
        <path id="Path_2895" data-name="Path 2895" d="M300.126,1097.163a3.237,3.237,0,0,1-.553,1.5c2.5.616,3.485,4.052,3.758,5.13s.749,2.052,1.2,1.987.087-.574-.148-.79-.193-.726-.193-.726h.038a11.986,11.986,0,0,1,.326-3.85,21.207,21.207,0,0,0,.258-3.891,48.893,48.893,0,0,1,1.323-5c.385-1.476,1.476-6.93,1.476-6.93l-8.854-.62a17.209,17.209,0,0,0,.514,4.791A35.664,35.664,0,0,1,300.126,1097.163Z" transform="translate(-290.295 -988.744)" fill="#b3815c"/>
        <path id="Path_2896" data-name="Path 2896" d="M293.174,1138.865a10.238,10.238,0,0,0-2.2,1.516,2.1,2.1,0,0,0-.6,2.7,9.551,9.551,0,0,1,.793,3.87c-.151,1.241-.6,3.573-.6,3.573l.246.247a3.241,3.241,0,0,0,.547-.117,17.723,17.723,0,0,1,1.5-4.385,1.6,1.6,0,0,1,2.568.261c.94,1.15,2.672,3.008,3.634,2.926s2.179-1.83,2.63-2.926.449-1.588-.424-1.8a24.4,24.4,0,0,0-3.382-.235s-.045.513.193.727.6.728.148.79-.922-.9-1.2-1.987S295.74,1139.419,293.174,1138.865Z" transform="translate(-283.986 -1028.97)" fill="#003199"/>
        <path id="Path_2897" data-name="Path 2897" d="M303.306,1165.37a1.6,1.6,0,0,0-2.41-.408,13.5,13.5,0,0,0,2.73,2.433,5.729,5.729,0,0,0,2.992.864s0,0,.006,0C305.635,1168.006,304.154,1166.4,303.306,1165.37Z" transform="translate(-291.871 -1047.815)" fill="#00008c"/>
        <path id="Path_2898" data-name="Path 2898" d="M321.211,1160.138a24.509,24.509,0,0,0-3.382-.234,1.266,1.266,0,0,0,.109.62l.058.078a.225.225,0,0,0,.026.028,1.535,1.535,0,0,1,.316.42h0c.061.136.071.262-.037.33a5.508,5.508,0,0,1-.941,2.642,2.734,2.734,0,0,0,1.644.843c.962-.086,2.179-1.829,2.63-2.925S322.084,1160.353,321.211,1160.138Z" transform="translate(-303.936 -1044.386)" fill="#003199"/>
        <path id="Path_2899" data-name="Path 2899" d="M276.655,913.661s-2.744,6.924-2.219,11.2a8.138,8.138,0,0,0,5.413,6.961s4.061,6.366,5.468,10.56,3.774,19.543,4.072,22.357.744,6.361.744,6.361,5.334,1.3,7,1.206c0,0-1.366-10.675-.731-16.154s2.269-10.067,2.466-12.337-1.482-7.651-2.466-9.377S284.743,914.8,284.743,914.8Z" transform="translate(-272.435 -863.955)" fill="#003e96"/>
        <path id="Path_2900" data-name="Path 2900" d="M295.916,916.148a27.543,27.543,0,0,0-.988,9.789c.329,5.809,3.245,7.277,3.245,7.277S297.831,939.6,298,943.6s.173,7.065-.553,9.022a26.607,26.607,0,0,0-1.831,9.45c.172,3.445,1.351,9.084.508,11.808a18.411,18.411,0,0,0,4.216,1.953c1.62.347,1.918.215,1.918.215a37.81,37.81,0,0,1,1.061-7.509c.854-2.638,2.128-11.533,3.192-15.024s5.449-15.787,6.043-21.194-2.128-17.192-2.128-17.192Z" transform="translate(-287.457 -865.03)" fill="#0f57af"/>
        <path id="Path_2901" data-name="Path 2901" d="M274.05,795.208a7.741,7.741,0,0,0-4.4-.572c-2.344.445-2.723,2.945-2.438,6.35s3.039,12.116,4.181,15.252.924,4.182.653,5.606-2.979,10.072-2.979,10.072.535,1.088,7.081,2.92c8.228,2.3,15.131,1.565,16.165-.416l-2.676-9.187s-.475-6.491-.379-7.031,3.136-3.991,3.231-6.62-4.32-8.363-4.32-8.363l-2.987-1.714S275.317,797.422,274.05,795.208Z" transform="translate(-267.13 -776.66)" fill="#367ed6"/>
        <path id="Path_2902" data-name="Path 2902" d="M322.636,865.59,319.96,856.4s-.476-6.491-.379-7.031,3.136-3.991,3.231-6.62c.052-1.447-1.264-3.834-2.455-5.689l-6,2.5s-1.545,3.949-2.327,6.755-4.159,7.793-3.4,9.857c.606,1.659,3.169,6.873,3.465,10.984C317.668,867.883,321.848,867.095,322.636,865.59Z" transform="translate(-297.455 -807.829)" fill="#1d65bd"/>
        <g id="Group_902" data-name="Group 902" transform="translate(5.23)">
          <path id="Path_2903" data-name="Path 2903" d="M301.571,754.183s-.621-3.757-.2-5.214.885-1.735,1.508-1.949c.48-.163,1.52.013,2.429-2.378s.381-3.316.474-4.3a6.56,6.56,0,0,0,.058-2.617c-.26-.923-.926-4.388-3.8-5.3a9.718,9.718,0,0,0-7.939.882,7.29,7.29,0,0,0-2.651,6.444c.277,2.572,1.844,4.038,2.044,5.788a9.655,9.655,0,0,1-1.576,5.481c-.911,1.467,1.469,3.158,3.033,3.7A8.759,8.759,0,0,0,301.571,754.183Z" transform="translate(-290.151 -730.823)" fill="#ffcda8"/>
          <path id="Path_2904" data-name="Path 2904" d="M321.257,770.173a32.694,32.694,0,0,1-.444-3.511l-2.938,2.717s.9,6.466-.673,9.473a1.717,1.717,0,0,0-.033,1.669,8.928,8.928,0,0,0,3.129-.917s-.621-3.758-.2-5.214.885-1.735,1.508-1.949a3.574,3.574,0,0,0,1.02-.333A3.076,3.076,0,0,1,321.257,770.173Z" transform="translate(-308.878 -756.244)" fill="#d9a782"/>
          <path id="Path_2905" data-name="Path 2905" d="M330.845,770.362c-.084.176-1.256.4-1.267-1.664s1.31-2.673,1.427-1.178A11.372,11.372,0,0,1,330.845,770.362Z" transform="translate(-318.118 -756.267)" fill="#f2a983"/>
          <path id="Path_2906" data-name="Path 2906" d="M302.961,732.84c-.537-2.411-3.319-7.082-11.677-4.3-1.766.589-5.017,3.618-4.538,8.616a16.688,16.688,0,0,0,1.733,5.074,13.312,13.312,0,0,1,1.1,3.306s2.8,1.928,5.4.59a1.743,1.743,0,0,0,.978-1.4,6.364,6.364,0,0,0,.51.6s-.024-.944.084-2.216a4.109,4.109,0,0,0,.55,1.417,7.073,7.073,0,0,1-.016-2.5,4.094,4.094,0,0,0,.741,1.408,4.793,4.793,0,0,1-.294-1.723,3.351,3.351,0,0,0,1.464.888,14.947,14.947,0,0,1-.744-3.04A11.963,11.963,0,0,0,300,742.717a12.5,12.5,0,0,1-1.114-3.558,13.9,13.9,0,0,0,1.191,1.68,4.51,4.51,0,0,1-.458-2.123,3.373,3.373,0,0,0,.663.84,4.346,4.346,0,0,1-.073-1.634,2.337,2.337,0,0,0,.817,1.368c-.238-1.094.532-2.746,1.006-3.554a4.637,4.637,0,0,1-.726,2.483,4.826,4.826,0,0,0,1.213-1.578,2.7,2.7,0,0,1,.089.356A6.673,6.673,0,0,0,302.961,732.84Z" transform="translate(-286.698 -727.683)" fill="#e54b5a"/>
          <path id="Path_2907" data-name="Path 2907" d="M319.929,757.846a4.785,4.785,0,0,1-.294-1.723,3.347,3.347,0,0,0,1.464.888,14.984,14.984,0,0,1-.744-3.039,11.958,11.958,0,0,0,1.757,3.154A12.5,12.5,0,0,1,321,753.568a13.9,13.9,0,0,0,1.191,1.68,4.508,4.508,0,0,1-.459-2.123,3.377,3.377,0,0,0,.663.84,4.348,4.348,0,0,1-.073-1.634,2.34,2.34,0,0,0,.817,1.369c-.238-1.094.532-2.746,1.006-3.554a4.637,4.637,0,0,1-.726,2.483,4.826,4.826,0,0,0,1.213-1.578,2.734,2.734,0,0,1,.089.356,6.659,6.659,0,0,0,.369-4.059,6.112,6.112,0,0,1-.436,3.011,3.788,3.788,0,0,0-.112-1.744,13.246,13.246,0,0,0-1.052,1.926,9.844,9.844,0,0,0-.694,2.178s.609-3.282.365-2.986c-.265.323-2.041,2.452-1.782,3.547a12.635,12.635,0,0,1-.123-2.188,8.95,8.95,0,0,0-1.1,4.1,3.117,3.117,0,0,1-.37-1.813s-1.77,3.06-1.751,4.364l-.218-1.077a9.377,9.377,0,0,1-.944,3.974c.073-.034.142-.065.213-.1a1.745,1.745,0,0,0,.978-1.4,6.307,6.307,0,0,0,.51.6s-.024-.944.083-2.216a4.112,4.112,0,0,0,.55,1.417,7.077,7.077,0,0,1-.016-2.5A4.1,4.1,0,0,0,319.929,757.846Z" transform="translate(-308.806 -742.092)" fill="#bf2534"/>
          <path id="Path_2908" data-name="Path 2908" d="M295.928,766.828l-.817-1.718a3.978,3.978,0,0,1-.776,1.819l.206-1.354a9.023,9.023,0,0,1-.918,1.4l-.069-1.091-.56,1.132a3.157,3.157,0,0,1-.551-.965l-.17,1.156s-1.315-.746-1.569-1.7a3.594,3.594,0,0,0-.154,1.323,19.494,19.494,0,0,0-1.215-2.942,6.618,6.618,0,0,1-1.1-2.756,6.117,6.117,0,0,0,.123,1.966,9.785,9.785,0,0,1-.378-4.066,3.527,3.527,0,0,0-1.27.336c.006.248.019.5.044.76a16.687,16.687,0,0,0,1.732,5.074,13.311,13.311,0,0,1,1.1,3.306s2.8,1.929,5.4.591a1.744,1.744,0,0,0,.977-1.4c.03.038.061.071.09.11Z" transform="translate(-286.707 -750.651)" fill="#bf2534"/>
          <path id="Path_2909" data-name="Path 2909" d="M290.637,749.922a24.053,24.053,0,0,0-1.75-5.049l.092,1.483s-.269-.815-1.193-3.509.746-5.519.746-5.519a3.21,3.21,0,0,0-.98,1.812,5.532,5.532,0,0,1,2.834-4.62,3.874,3.874,0,0,0-1.977,1.346,10.51,10.51,0,0,1,1.831-2.96,8.654,8.654,0,0,0-3.493,8.078,16.683,16.683,0,0,0,1.733,5.074,13.317,13.317,0,0,1,1.1,3.306A6.376,6.376,0,0,0,290.637,749.922Z" transform="translate(-286.699 -731.51)" fill="#bf2534"/>
        </g>
        <path id="Path_2910" data-name="Path 2910" d="M289.321,796.562a82.257,82.257,0,0,1,8.087,3.733l1.341,2.069s-6.467.652-10.306-1.45c-4.66-2.553-2.357-4.068-2.357-4.068l1.334-1.02Z" transform="translate(-280.603 -777.614)" fill="#5098f0"/>
        <path id="Path_2911" data-name="Path 2911" d="M326.976,1132.291a6.991,6.991,0,0,0-2.353,1.606,4.154,4.154,0,0,0-.535,3.251,16.471,16.471,0,0,1,.385,3.914c-.087,1.048-.494,3.571-.494,3.571h.621s.683-5,1.584-5.282,1.84-.322,2.8,1.24,2.527,3.934,4.366,3.613,3.742-2.588,3.443-3.079-3.979-.813-3.979-.813,1.113.513.694.694a1.734,1.734,0,0,1-2.021-1.229C331.038,1138.558,329.265,1133.789,326.976,1132.291Z" transform="translate(-308.785 -1024.153)" fill="#1e4699"/>
        <path id="Path_2912" data-name="Path 2912" d="M335.853,1159.536c-.856-1.389-1.7-1.507-2.5-1.321a10.993,10.993,0,0,0,2.182,3.352,8.7,8.7,0,0,0,4.083,1.594h0C338.041,1162.954,336.713,1160.922,335.853,1159.536Z" transform="translate(-315.653 -1043.098)" fill="#00008c"/>
        <path id="Path_2913" data-name="Path 2913" d="M370.51,856.332a6.158,6.158,0,0,0,.25-1.967c-.124-.647-.949-3.882-1.021-4.627s.124-1.617.647-1.666.746,1.592.9,2.163.5,1.071.919,1,1.37-.521,1.942-.25a1.286,1.286,0,0,1,.671,1.418,4.707,4.707,0,0,1-.2,1.743c-.3.572-.645,2.213-.8,2.489s-1.392,1.965-1.392,1.965Z" transform="translate(-342.304 -815.895)" fill="#ffcda8"/>
        <g id="Group_903" data-name="Group 903" transform="translate(29.537 26.926)">
          <path id="Path_2914" data-name="Path 2914" d="M381.552,828.914c0-.155.1-.29.626-.325s2.455-.338,2.709,0,.329.768.073.954a8.725,8.725,0,0,1-2.4,0C382.2,829.506,381.552,829.356,381.552,828.914Z" transform="translate(-380.508 -828.43)" fill="#ffcda8"/>
          <path id="Path_2915" data-name="Path 2915" d="M378.627,833.768c0-.291.3-.475,1.059-.325s3.279.444,3.142,1.257-.769.687-1.108.6-2.5-.861-2.686-.925A.718.718,0,0,1,378.627,833.768Z" transform="translate(-378.365 -832.064)" fill="#ffcda8"/>
          <path id="Path_2916" data-name="Path 2916" d="M377.675,838.077a.9.9,0,0,1,1.015-.211,13.4,13.4,0,0,1,2.777,1.061.631.631,0,0,1-.08.8,3,3,0,0,1-1.5-.175C379.365,839.39,377.386,838.552,377.675,838.077Z" transform="translate(-377.647 -835.301)" fill="#ffcda8"/>
          <path id="Path_2917" data-name="Path 2917" d="M378.042,844.505c.1-.218.414-.144.91.084s1.742.7,1.672,1-.306.488-.753.4S377.729,845.169,378.042,844.505Z" transform="translate(-377.908 -840.113)" fill="#ffcda8"/>
        </g>
        <path id="Path_2918" data-name="Path 2918" d="M328.792,831.2c.444-1.517,2.516-4.887,4.2-4s2.466,2.665,2.119,6.514-.986,12.535-.986,12.535l5.724-5.724s2.96.048,2.271,3.7c0,0-6.613,9.229-7.452,10.266s-4.479,3.207-5.544.839S327.113,836.926,328.792,831.2Z" transform="translate(-311.64 -800.499)" fill="#367ed6"/>
        <path id="Path_2919" data-name="Path 2919" d="M358.527,878.475a2.578,2.578,0,0,0-1.916-1.01l-5.724,5.724s-.382,4.831.155,4.681C351.517,887.74,357.114,880.429,358.527,878.475Z" transform="translate(-328.404 -837.433)" fill="#5098f0"/>
      </g>
      <g id="Group_912" data-name="Group 912" transform="translate(114.823 270.952)">
        <g id="Group_905" data-name="Group 905" transform="translate(9.309 109.132)">
          <path id="Path_2920" data-name="Path 2920" d="M523.5,1289.246s-.4,3.3.465,3.909a3.468,3.468,0,0,0,3.625,0c1-.751,1.971-3.084,3.514-3.515s5.332-2.295,5.631-4.485-3.73-2.439-6.133-1.612S523.5,1289.246,523.5,1289.246Z" transform="translate(-523.407 -1283.107)" fill="#003199"/>
          <path id="Path_2921" data-name="Path 2921" d="M536.888,1286.709s-.006,0-.008-.006a1.344,1.344,0,0,1,.3,1.087c-.3,2.191-4.089,4.056-5.631,4.486s-2.509,2.764-3.514,3.515a3.468,3.468,0,0,1-3.625,0,1.228,1.228,0,0,1-.393-.693c0,.038,0,.07,0,.106-.017.694.07,1.319.392,1.548a3.466,3.466,0,0,0,3.625,0,21.5,21.5,0,0,0,1.989-2.413v-.4a4.085,4.085,0,0,1,1.525-1c1.513-.524,5.676-2.637,5.975-4.828A2.426,2.426,0,0,0,536.888,1286.709Z" transform="translate(-523.85 -1285.742)" fill="#003199"/>
        </g>
        <g id="Group_906" data-name="Group 906" transform="translate(23.724 116.326)">
          <path id="Path_2922" data-name="Path 2922" d="M593.764,1311.178c-.488-.9-1.443-.917-4.383-.932-2.908-.013-4.113.487-5.15-.221l-6.557,1.888s-.629,3.409-.148,4.151,2.15,1.222,4.26.74a26.445,26.445,0,0,1,6-.483C589.6,1316.321,595.656,1314.678,593.764,1311.178Z" transform="translate(-577.344 -1310.025)" fill="#003199"/>
          <path id="Path_2923" data-name="Path 2923" d="M594.246,1315.653a1.266,1.266,0,0,0-.233-.3c1.448,3.315-4.337,4.874-6.105,4.874a26.446,26.446,0,0,0-6,.483c-2.11.481-3.778,0-4.26-.741a1.109,1.109,0,0,1-.132-.388,3.921,3.921,0,0,0,0,.446,1.851,1.851,0,0,0,.131.99c.482.742,2.15,1.225,4.26.742q.791-.18,1.57-.278V1321a33.416,33.416,0,0,1,4.433-.206C589.723,1320.8,596.138,1319.153,594.246,1315.653Z" transform="translate(-577.463 -1313.925)" fill="#003199"/>
        </g>
        <path id="Path_2924" data-name="Path 2924" d="M519.971,1141.188s3.623,1.244,5.539-1.329a17.341,17.341,0,0,0,2.579-6.342s.23-6.859.935-11.793c.249-1.737.594-6.433,1.378-11.179,1.028-6.231,2.256-13.814,2.256-13.814l-4.275-14.97-7.889-3.4s-1.587,5.888-1.232,8.889a30.549,30.549,0,0,0,1.232,5.576s.909,16.15.454,19.256a79.157,79.157,0,0,0-1.242,10.879C519.7,1126.545,519.971,1141.188,519.971,1141.188Z" transform="translate(-511.022 -1023.949)" fill="#1d65bd"/>
        <path id="Path_2925" data-name="Path 2925" d="M558.948,1090.96l.671,3.188s3.1,13.211,3.857,19.166a44.656,44.656,0,0,1-.053,12.781c-.472,3.6-1.562,22.783-1.562,22.783a10.433,10.433,0,0,1-6.067,4.024c-3.773.676-4.516,0-4.516,0s0-11.258.323-15.374c.3-3.874.416-11.693.66-14.3s-1.6-9.669-2.331-12.438a30.164,30.164,0,0,0-1.645-4.7s-4.869-3.583-5.4-8.632,1.14-7.775,1.14-7.775S552.17,1091.825,558.948,1090.96Z" transform="translate(-528.297 -1032.25)" fill="#367ed6"/>
        <g id="Group_907" data-name="Group 907" transform="translate(0 19.666)">
          <path id="Path_2926" data-name="Path 2926" d="M495.772,949.956l-.8-1.6s-3.991.692-4.9,3.619-1.224,9.736-1.329,13.089-.906,10.322,2.181,10.058,9.79-2.343,9.79-2.343Z" transform="translate(-488.578 -948.36)" fill="#e6f6ff"/>
          <path id="Path_2927" data-name="Path 2927" d="M499.868,993.928l5.238-.261,2.67,12.314a72.947,72.947,0,0,1-9.569,2.32C499.828,1003.605,499.868,993.928,499.868,993.928Z" transform="translate(-495.634 -981.558)" fill="#c7deeb"/>
        </g>
        <g id="Group_908" data-name="Group 908" transform="translate(21.951 12.623)">
          <path id="Path_2928" data-name="Path 2928" d="M573.883,922.009a14.75,14.75,0,0,1,3.109.783c.989.474,1.462,2.041,2.163,3.236s2,3.023,2,3.023l-2.7,2.417c-.432-.638-2.225-.721-3.848-1.031s-1.778-.843-2.211-1.971a10.541,10.541,0,0,0-1.687-2.521Z" transform="translate(-570.708 -922.009)" fill="#ffcda8"/>
          <path id="Path_2929" data-name="Path 2929" d="M574.831,922.175a3.138,3.138,0,0,1-.041.579,12.517,12.517,0,0,0-.325,3.685c.19,1.136,1.923,2.533,3.058,3.085.572.278,1.359.662,1.994.994l-1.063.951c-.432-.638-2.225-.721-3.848-1.031s-1.778-.843-2.211-1.971a10.541,10.541,0,0,0-1.687-2.521l3.175-3.937S574.292,922.069,574.831,922.175Z" transform="translate(-570.708 -922.009)" fill="#d9a782"/>
        </g>
        <g id="Group_910" data-name="Group 910" transform="translate(9.647)">
          <path id="Path_2930" data-name="Path 2930" d="M540.906,883.98a4.958,4.958,0,0,1-.275,2.567.931.931,0,0,0,.167,1.057,3.444,3.444,0,0,1,.168,2.039c-.27,1.064-.69,3.649-.916,4.364s-1.118,1.013-2.026,1.118-1.431.07-1.431,1.257.23,4.159,1.6,5.091c0,0-2.786,1.543-3.766,1.891s-8.133-1.449-8.133-1.449l.2-4.748a3.791,3.791,0,0,0,.984-3.055c-.226-1.9-1.728-4.154-2.145-5.934s-1.294-5.342,2.111-8.031,5.724-2.67,7.907-2.287S540.05,879.47,540.906,883.98Z" transform="translate(-524.851 -876.901)" fill="#ffcda8"/>
          <path id="Path_2931" data-name="Path 2931" d="M553.306,919.847c-.819-3.935,3.545-5.524,3.545-5.524l.516,2.9.33,2.815s.012,1.253,2.289,1.374a3.225,3.225,0,0,1-1.641.564c-.908.105-1.431.07-1.431,1.257s.23,4.159,1.6,5.091c0,0-2.786,1.543-3.766,1.892a6.361,6.361,0,0,1-2.1-.144C553.154,927.352,553.871,922.558,553.306,919.847Z" transform="translate(-545.174 -903.754)" fill="#d9a782"/>
          <path id="Path_2932" data-name="Path 2932" d="M532.308,874.875c5.1-.547,7.387,1.379,8.019,2.529a1,1,0,0,1-.585,1.529,1.358,1.358,0,0,0-.288,1.03c.087,1.047.506,2.251.087,2.95a6.973,6.973,0,0,0-.7,3.352,2.048,2.048,0,0,1-.306,1.449l-1.156-.554s-1.331.24-1.61,1.148-.96,4.032-3.141,4.138c-1.718.081-4.494-1.123-5.6-1.638-.515-1.606-1.538-3.33-1.871-4.751a14.311,14.311,0,0,1-.388-2.171.863.863,0,0,1-.032-.143C524.19,879.315,527.206,875.421,532.308,874.875Z" transform="translate(-524.674 -874.779)" fill="#412999"/>
          <g id="Group_909" data-name="Group 909" transform="translate(0.753 12.152)">
            <path id="Path_2933" data-name="Path 2933" d="M574.563,922.105c-.035.059-.059.091-.059.091l-.743-.357A1.5,1.5,0,0,1,574.563,922.105Z" transform="translate(-561.395 -921.414)" fill="#8c5228"/>
            <path id="Path_2934" data-name="Path 2934" d="M527.492,920.247c1.76.865,6.582,2.839,10.658.868a1.264,1.264,0,0,0-.316.508c-.278.907-.96,4.033-3.141,4.138-1.718.081-4.494-1.122-5.6-1.639C528.681,922.834,527.941,921.47,527.492,920.247Z" transform="translate(-527.492 -920.247)" fill="#281080"/>
          </g>
          <path id="Path_2935" data-name="Path 2935" d="M569.616,923.789c-.1.559-.312,1.117-.733.559a4.321,4.321,0,0,1-.487-2.706c.1-.995,1.01-1.675,1.116-.542S569.616,923.789,569.616,923.789Z" transform="translate(-556.688 -908.288)" fill="#ffcda8"/>
        </g>
        <path id="Path_2936" data-name="Path 2936" d="M506.917,948.892s.052,1.436,2.659,2.766,9.1,1.544,9.1,1.544,4.534,2,5.758,6.094,1.425,11.467,1.48,15.245a112.34,112.34,0,0,0,.692,11.592c.372,2.456,1.131,5.358,1.131,5.358s-4.357,3.817-11.62,2.1a34.874,34.874,0,0,1-12.551-6s.425-1.879,1.436-4.857,2.076-6.7,1.544-7.556-6.7-11.926-7.876-16.494c-2.075-8.09,3.353-10.324,3.353-10.324Z" transform="translate(-495.625 -928.694)" fill="#e6f6ff"/>
        <path id="Path_2937" data-name="Path 2937" d="M572.671,1011.266c.1-3.164,3.857-4.035,3.857-4.035l3.348-.766a105.854,105.854,0,0,1,.605,10.651,112.3,112.3,0,0,0,.692,11.592c.372,2.456,1.131,5.358,1.131,5.358a12.624,12.624,0,0,1-7.71,2.539c.126-3.36.435-8.506.589-11.744C575.418,1019.918,572.574,1014.43,572.671,1011.266Z" transform="translate(-550.194 -971.27)" fill="#c7deeb"/>
        <path id="Path_2938" data-name="Path 2938" d="M570.506,953.748c-3.972,2.552-2.011,7.907,1.478,10.888s14.027,4.2,16.261,3.725,4.841-3.193,1.7-7.556-10.588-14.633-10.588-14.633-2.981,1.064-3.511,3.513l4.575,9.153s-4.421-3.783-7.178-5.062A3.056,3.056,0,0,0,570.506,953.748Z" transform="translate(-546.996 -927.09)" fill="#e6f6ff"/>
        <g id="Group_911" data-name="Group 911" transform="translate(28.851 20.532)">
          <path id="Path_2939" data-name="Path 2939" d="M612.027,992.237a6.488,6.488,0,0,1-.589-.482C611.807,992.05,612.027,992.237,612.027,992.237Z" transform="translate(-607.452 -981.024)" fill="#c47508"/>
          <path id="Path_2940" data-name="Path 2940" d="M596.525,953.663a4.094,4.094,0,0,1,1.21-2.061c.95,1.987,3.3,6.845,4.432,8.636,1.434,2.274,7.663,6.327,7.663,6.327s-7.283-2.767-8.731-3.749Z" transform="translate(-596.525 -951.602)" fill="#c7deeb"/>
        </g>
      </g>
      <g id="Group_913" data-name="Group 913" transform="translate(324.72 275.661)">
        <path id="Path_2941" data-name="Path 2941" d="M1388.408,1151.19l-.021,7.6-2.31,8.613.022-7.6Z" transform="translate(-1346.644 -1150.94)" fill="#9f001b"/>
        <path id="Path_2942" data-name="Path 2942" d="M1441.586,1172.869l-.021,7.6-10.616,6.17.021-7.6Z" transform="translate(-1379.523 -1166.825)" fill="#008ab2"/>
        <path id="Path_2943" data-name="Path 2943" d="M1411.3,1157.211l-10.617,6.171a29.382,29.382,0,0,0-11.07-3.266l2.306-8.616A47.635,47.635,0,0,1,1411.3,1157.211Z" transform="translate(-1349.232 -1151.167)" fill="#1ed6fe"/>
        <path id="Path_2944" data-name="Path 2944" d="M1400.62,1187l-.022,7.6a29.358,29.358,0,0,0-11.07-3.265l.021-7.6A29.4,29.4,0,0,1,1400.62,1187Z" transform="translate(-1349.173 -1174.787)" fill="#00b0d8"/>
        <path id="Path_2945" data-name="Path 2945" d="M1290.326,1179.039l-.022,7.6-10.687-6.17.022-7.6Z" transform="translate(-1268.638 -1166.825)" fill="#9f001b"/>
        <path id="Path_2946" data-name="Path 2946" d="M1337.389,1183.11l-.021,7.6c-6.288-.495-12.869.623-17.767,3.35l.022-7.6C1324.521,1183.733,1331.1,1182.614,1337.389,1183.11Z" transform="translate(-1297.934 -1174.245)" fill="#b81834"/>
        <path id="Path_2947" data-name="Path 2947" d="M1310.46,1150.5l-2.309,8.615c-6.289-.5-12.868.623-17.767,3.349l-10.686-6.17C1288.131,1151.5,1298.748,1149.506,1310.46,1150.5Z" transform="translate(-1268.697 -1150.254)" fill="#ea4a66"/>
        <path id="Path_2948" data-name="Path 2948" d="M1439.479,1206.067q-.012,3.8-.021,7.6c.009-3.127-2-6.258-6.026-8.682l.022-7.6C1437.477,1199.808,1439.488,1202.941,1439.479,1206.067Z" transform="translate(-1381.342 -1184.789)" fill="#1d65bd"/>
        <path id="Path_2949" data-name="Path 2949" d="M1294.959,1213.541q.009-3.8.021-7.6c.009-3.087,1.985-6.17,5.931-8.564l-.021,7.6C1296.943,1207.372,1294.966,1210.454,1294.959,1213.541Z" transform="translate(-1279.879 -1184.785)" fill="#8390bf"/>
        <path id="Path_2950" data-name="Path 2950" d="M1238.536,1236.921q.01-3.8.021-7.6c-.016,5.519,3.706,10.961,10.809,15.063a42.412,42.412,0,0,0,8.878,3.771l-.021,7.6a42.344,42.344,0,0,1-8.879-3.77C1242.24,1247.885,1238.52,1242.441,1238.536,1236.921Z" transform="translate(-1238.536 -1208.193)" fill="#8390bf"/>
        <path id="Path_2951" data-name="Path 2951" d="M1319.007,1270.72l-.021,7.6-6.788,7.771.021-7.6Z" transform="translate(-1292.511 -1238.524)" fill="#6a77a6"/>
        <path id="Path_2952" data-name="Path 2952" d="M1259.626,1180.466c-8.047,4.883-7.9,12.63.419,17.433a24.867,24.867,0,0,0,5.047,2.168l-6.788,7.771a42.383,42.383,0,0,1-8.878-3.771c-11.273-6.507-14.026-16.394-6.852-24.6a24.811,24.811,0,0,1,6.367-5.172Z" transform="translate(-1238.594 -1167.87)" fill="#a9b6e5"/>
        <path id="Path_2953" data-name="Path 2953" d="M1367.969,1230.017q-.011,3.8-.022,7.6c-.016,5.391-3.551,10.773-10.612,14.876-11.267,6.548-27.715,8.111-42.025,4.017l.021-7.6c14.31,4.1,30.758,2.532,42.024-4.016C1364.417,1240.79,1367.953,1235.407,1367.969,1230.017Z" transform="translate(-1294.79 -1208.699)" fill="#1d65bd"/>
        <path id="Path_2954" data-name="Path 2954" d="M1357.577,1174.3c13.981,8.273,13.942,21.571-.161,29.767-11.267,6.548-27.714,8.111-42.025,4.016l6.791-7.769c8.025,2.24,17.93,1.436,24.554-2.414,8.266-4.8,8.327-12.552.225-17.432Z" transform="translate(-1294.85 -1167.875)" fill="#438be3"/>
      </g>
      <g id="Group_918" data-name="Group 918" transform="translate(242.9 340.496)">
        <path id="Path_2955" data-name="Path 2955" d="M977.3,1217.893l-1.817-2.9s-3.614.949-4.27,3.651-2.673,7.787-3.072,10.437-.829,11,.972,11.793a5.343,5.343,0,0,0,4.854.028,26.741,26.741,0,0,0,4.454-3.5Z" transform="translate(-967.789 -1193.613)" fill="#dbe8f5"/>
        <path id="Path_2956" data-name="Path 2956" d="M981.244,1253.757a23.8,23.8,0,0,1-.641,6.112c-.779,3.069-1.386,4.9-.968,7.01.235,1.188-.494,2.281-.274,2.942a5.1,5.1,0,0,0,3.054-.514,26.768,26.768,0,0,0,4.455-3.5l-.539-9.368Z" transform="translate(-976.237 -1222.013)" fill="#c7deeb"/>
        <g id="Group_914" data-name="Group 914" transform="translate(10.98 111.053)">
          <path id="Path_2957" data-name="Path 2957" d="M1009.1,1556.722s-.527,3.291,0,4.038a3.638,3.638,0,0,0,4.082.7c1.4-.833,1.521-1.469,3.012-2.817,1.415-1.279,3.573-2.485,4.154-4.439.446-1.5.078-3.277-.669-3.628s-3.687.527-5.179,1.843S1009.1,1556.722,1009.1,1556.722Z" transform="translate(-1008.87 -1550.499)" fill="#3a2e52"/>
          <path id="Path_2958" data-name="Path 2958" d="M1020.521,1561.237c-.581,1.955-2.738,3.16-4.154,4.439-1.49,1.348-1.607,1.983-3.012,2.817a3.64,3.64,0,0,1-4.082-.7,1.23,1.23,0,0,1-.171-.49,2.339,2.339,0,0,0,.07.684l.142.865a3.324,3.324,0,0,0,1.232.825,3.223,3.223,0,0,0,2.793-.2,21.525,21.525,0,0,0,2.376-2.22s0-.246-.006-.532c.188-.194.4-.405.657-.637,1.415-1.281,3.573-2.484,4.154-4.438a4.83,4.83,0,0,0,.186-1.557A4.768,4.768,0,0,1,1020.521,1561.237Z" transform="translate(-1009.04 -1557.531)" fill="#000508"/>
        </g>
        <g id="Group_915" data-name="Group 915" transform="translate(21.607 122.007)">
          <path id="Path_2959" data-name="Path 2959" d="M1067.133,1594.467c-1.889-.417-7.841-.792-9.929-2.984l-8.32,2.719s-.564,2.645,0,4.044a10.6,10.6,0,0,0,3.929,1.058,18.063,18.063,0,0,1,5.176.3,16.293,16.293,0,0,0,7.82,0c2.532-.756,4.156-2.646,4.195-3.551S1069.021,1594.883,1067.133,1594.467Z" transform="translate(-1048.634 -1591.482)" fill="#3a2e52"/>
          <path id="Path_2960" data-name="Path 2960" d="M1070.524,1608.669c-.06.913-1.677,2.779-4.191,3.53a16.293,16.293,0,0,1-7.82,0,18.076,18.076,0,0,0-5.176-.3,10.59,10.59,0,0,1-3.929-1.059c-.017-.041-.032-.084-.047-.128a2.473,2.473,0,0,0,.041.282l-.054,1.259a5.439,5.439,0,0,0,1.649.651,24.386,24.386,0,0,0,5.019.12s.006-.351.008-.692a11.072,11.072,0,0,1,2.578.34,16.3,16.3,0,0,0,7.818,0c2.534-.756,4.157-2.646,4.195-3.55A.882.882,0,0,0,1070.524,1608.669Z" transform="translate(-1049.157 -1604.075)" fill="#000508"/>
        </g>
        <g id="Group_916" data-name="Group 916" transform="translate(11.297)">
          <path id="Path_2961" data-name="Path 2961" d="M1025.42,1139.39c1.606.842,2.8,3.162,3.208,5.013s0,2.326,0,2.326,1.29,1.125,1.147,1.49-1.286,1.225-1.286,1.225a6.6,6.6,0,0,1,.111,1.753,8.938,8.938,0,0,0-.454,2.379c.1.618-.02,1.7-.649,2.016s-3.383.1-3.646.932a39.035,39.035,0,0,0-.263,5.105s-4.208,2.795-7.947.947-2.333-5.791-2.333-5.791,1.135-2.074.634-3.5-2.707-3.978-2.286-7.571,2.306-5.552,5.707-6.725S1023.025,1138.133,1025.42,1139.39Z" transform="translate(-1011.19 -1137.386)" fill="#ffcda8"/>
          <path id="Path_2962" data-name="Path 2962" d="M1040.824,1188.979c.13-.409.866-.566,1.654-.656-1.253-.306-2.813-.863-2.916-1.754-.174-1.5-.616-4.014-.616-4.014l-2.689,1.229s-.188,8.118-1.489,11.848a10.147,10.147,0,0,0,5.793-1.549A39.184,39.184,0,0,1,1040.824,1188.979Z" transform="translate(-1028.165 -1169.841)" fill="#d9a782"/>
          <path id="Path_2963" data-name="Path 2963" d="M1048.77,1186.435c-.068-.959-.385-1.5-1.288-1.153a2.044,2.044,0,0,0-.578,3C1047.711,1189.335,1049.038,1190.259,1048.77,1186.435Z" transform="translate(-1036.756 -1171.762)" fill="#ffcda8"/>
          <path id="Path_2964" data-name="Path 2964" d="M1020.953,1134.99c-4.425.166-9.731,1.865-10.663,6.964s1.268,6.46,1.268,6.46h0c.5,1.031,1.039,1.857,1.254,2.472a2.6,2.6,0,0,1,.12,1.016,7.244,7.244,0,0,0,2.859.675c1.69-.1,1.748.306,2.65-1.346s1.826-3.362,3.133-3.189,2.189.5,2.361-.116a2.717,2.717,0,0,0,.137-1.364c-.059-.634.94-1.384,1.229-2.383s-.924-2.017,0-2.958a8.47,8.47,0,0,0,1.4-1.45,1.5,1.5,0,0,0,.589-1.217C1027.262,1137.768,1025.377,1134.825,1020.953,1134.99Z" transform="translate(-1010.06 -1134.984)" fill="#412999"/>
          <path id="Path_2965" data-name="Path 2965" d="M1025.679,1170.94c1.305.172,2.189.5,2.361-.115a2.721,2.721,0,0,0,.137-1.364c-.059-.634.94-1.384,1.228-2.383a1.563,1.563,0,0,0-.032-.845c-1.168,1.9-8.018,5.168-10.305,5.437a9.419,9.419,0,0,1-3.406-.357c.5,1.031,1.039,1.857,1.254,2.472a2.6,2.6,0,0,1,.12,1.016,7.243,7.243,0,0,0,2.859.675c1.69-.1,1.748.307,2.65-1.346S1024.372,1170.767,1025.679,1170.94Z" transform="translate(-1014.165 -1157.881)" fill="#281080"/>
        </g>
        <path id="Path_2966" data-name="Path 2966" d="M1003.352,1405.417s-.443,2.41,2.887,2.887c1.879.269,4.684-2.4,5.927-5.079a8.155,8.155,0,0,0,.6-4.276s-.257-11.386.681-15.5,3.776-19.713,3.776-19.713l-4.439-20.547H1004.2a101.373,101.373,0,0,0-1.318,10.37c.032,4.15,1.439,10.109,1.318,16.547s-2.047,13.075-1.647,19.846S1003.352,1405.417,1003.352,1405.417Z" transform="translate(-993.224 -1287.542)" fill="#1058b0"/>
        <path id="Path_2967" data-name="Path 2967" d="M1046.059,1351.016s4.17,16.3,3,24.333-3.148,24.748-3.393,28.775,2.774,10.274,2.774,10.274-7.558,3.785-13.46,3.446c0,0-1.432-16.349-.814-21.29s2.5-11.05,1.858-14.548-2.427-16.482-2.427-16.482a21.76,21.76,0,0,1-2.912-6.852c-.214-1.235-1.851-10.064.866-11.312C1036.086,1345.278,1046.059,1351.016,1046.059,1351.016Z" transform="translate(-1013.376 -1290.266)" fill="#2971c9"/>
        <path id="Path_2968" data-name="Path 2968" d="M1012.772,1245.357a66.716,66.716,0,0,1-.486-11.027c.107-3.947,1.454-10.707-6.517-15.815l-12.711-5.863s-2.234.109-3.8.324-4.918.475-5.027,4.1,1.839,13.034,3.514,15.52,3.94,8.217,3.862,9.622-3.1,8.107-1.915,8.379,7.614,3.706,11.721,4.733,12.078,1.545,12.117-.9A82.659,82.659,0,0,0,1012.772,1245.357Z" transform="translate(-979.832 -1191.894)" fill="#e6f6ff"/>
        <path id="Path_2969" data-name="Path 2969" d="M1068.171,1263.99c.075-2.755.75-6.882-1.558-10.859h0a43.126,43.126,0,0,0-4.635,4.75c-.672,1.189-1.483,2.433-1.483,2.433a30.746,30.746,0,0,1,3.352,5.082c1.135,2.378,2.141,6.433,1.151,8.7s-.1,4.7-.788,7.189a26.5,26.5,0,0,1-2.15,4.457c3.647.3,7.328.011,7.353-1.645a82.693,82.693,0,0,0-.756-9.081A66.686,66.686,0,0,1,1068.171,1263.99Z" transform="translate(-1035.717 -1221.554)" fill="#c7deeb"/>
        <g id="Group_917" data-name="Group 917" transform="translate(24.777 23.453)">
          <path id="Path_2970" data-name="Path 2970" d="M1073.688,1230.059a12.958,12.958,0,0,0,2.341,1.149c.469.035,1.019-.037.844-.457a9.561,9.561,0,0,0-1.675-1.594s.818-.14.948-.14a15.106,15.106,0,0,0,2.435,1.206c.586.048,1.289-.445,1-.761a8.663,8.663,0,0,0-2.669-1.1A8.106,8.106,0,0,0,1073.688,1230.059Z" transform="translate(-1070.161 -1226.857)" fill="#d9a782"/>
          <path id="Path_2971" data-name="Path 2971" d="M1064.2,1229.661s4.421-.184,4.819-.337a.79.79,0,0,0-.273-1.383,32.856,32.856,0,0,0-4.238-.213c-.122,0-.952-.952.184-1.843a2.674,2.674,0,0,1,2.256-.8,8.717,8.717,0,0,1,3.162.62c.761.4,1.6.62,1.721.176s-1.944-1.769-2.788-2.366a4.219,4.219,0,0,0-2.54-.76,8.518,8.518,0,0,0-3.42.409c-.726.375-2.588,1.581-2.588,1.581Z" transform="translate(-1060.494 -1222.735)" fill="#ffcda8"/>
        </g>
        <path id="Path_2972" data-name="Path 2972" d="M1014.174,1205.423a14.443,14.443,0,0,1,4.578,1.293c1.975.972,6.124,3.3,6.124,3.3l1.633,3.208a49.363,49.363,0,0,1-11.758-4.05c-3.177-1.74-2.013-2.2-2.013-2.2Z" transform="translate(-1000.572 -1186.597)" fill="#fff"/>
        <path id="Path_2973" data-name="Path 2973" d="M1164.094,1196.853a1.4,1.4,0,0,0-1.187,1.154c-.274.984-1.452,3.144-1.685,3.846a12.353,12.353,0,0,1-1.317,2.394,1.519,1.519,0,0,0,.011,1.685,6.175,6.175,0,0,1,.617,1.587c-.022.094-2.148,4.342-2.148,4.342l4.739,1.958s2.05-4.832,2.213-5.207,1.6-1.6,2.045-2.213,1.18-1.972,1.063-2.345-.917-.672-.917-.672.063-.983-.336-1.285a6.575,6.575,0,0,0-.916-.556s.178-1.451-.478-1.729-1.12.639-1.424.594-.057-1.614.1-2.271S1164.56,1196.851,1164.094,1196.853Z" transform="translate(-1107.445 -1180.318)" fill="#ffcda8"/>
        <path id="Path_2974" data-name="Path 2974" d="M1053.661,1237.43c1.365-.515,3.513.325,7.352,2.649s13.567,7.245,13.567,7.245l7.109-11.628a25.382,25.382,0,0,1,4.838,2.437l-.919,2.27a4.089,4.089,0,0,1-.433,2.7c-.756,1.406-5.785,11.623-8.108,12.055s-11.393-2.325-14.616-3.189-7.853-2.109-10.322-5.3S1051.182,1238.366,1053.661,1237.43Z" transform="translate(-1028.668 -1208.78)" fill="#e6f6ff"/>
      </g>
      <g id="Group_922" data-name="Group 922" transform="translate(276.359 190.941)">
        <g id="Group_919" data-name="Group 919" transform="translate(0)">
          <path id="Path_2975" data-name="Path 2975" d="M1068.886,1053.863c2.585,1.493,2.585,3.912,0,5.4a10.341,10.341,0,0,1-9.359,0c-2.584-1.493-2.584-3.912,0-5.4A10.348,10.348,0,0,1,1068.886,1053.863Z" transform="translate(-1057.588 -994.085)" fill="#438be3" opacity="0.2" style="mix-blend-mode: multiply;isolation: isolate"/>
          <path id="Path_2976" data-name="Path 2976" d="M1071.348,834.342a9.963,9.963,0,0,0-9.015,0,3.167,3.167,0,0,0-1.868,2.6v58.684a3.168,3.168,0,0,0,1.868,2.6,9.959,9.959,0,0,0,9.015,0,3.167,3.167,0,0,0,1.867-2.6V836.946A3.166,3.166,0,0,0,1071.348,834.342Z" transform="translate(-1059.696 -833.264)" fill="url(#linear-gradient-3)"/>
          <path id="Path_2977" data-name="Path 2977" d="M1071.347,834.342c2.491,1.438,2.491,3.768,0,5.206a9.967,9.967,0,0,1-9.015,0c-2.49-1.439-2.491-3.768,0-5.206A9.963,9.963,0,0,1,1071.347,834.342Z" transform="translate(-1059.696 -833.264)" fill="#ff6480"/>
        </g>
        <g id="Group_920" data-name="Group 920" transform="translate(13.989 23.066)">
          <path id="Path_2978" data-name="Path 2978" d="M1121.228,1084.443c2.584,1.493,2.584,3.911,0,5.4a10.342,10.342,0,0,1-9.36,0c-2.585-1.493-2.585-3.912,0-5.4A10.351,10.351,0,0,1,1121.228,1084.443Z" transform="translate(-1109.929 -1039.557)" fill="#438be3" opacity="0.2" style="mix-blend-mode: multiply;isolation: isolate"/>
          <path id="Path_2979" data-name="Path 2979" d="M1123.688,920.644a9.962,9.962,0,0,0-9.016,0,3.166,3.166,0,0,0-1.867,2.6v43.792a3.168,3.168,0,0,0,1.867,2.6,9.957,9.957,0,0,0,9.016,0,3.168,3.168,0,0,0,1.867-2.6V923.247A3.166,3.166,0,0,0,1123.688,920.644Z" transform="translate(-1112.037 -919.566)" fill="url(#linear-gradient-4)"/>
          <path id="Path_2980" data-name="Path 2980" d="M1123.686,920.644c2.491,1.437,2.491,3.768,0,5.206a9.966,9.966,0,0,1-9.016,0c-2.49-1.438-2.49-3.768,0-5.206A9.961,9.961,0,0,1,1123.686,920.644Z" transform="translate(-1112.036 -919.566)" fill="#5da5fd"/>
        </g>
        <g id="Group_921" data-name="Group 921" transform="translate(28.202 39.354)">
          <path id="Path_2981" data-name="Path 2981" d="M1174.408,1115c2.584,1.492,2.584,3.912,0,5.4a10.338,10.338,0,0,1-9.36,0c-2.586-1.492-2.586-3.912,0-5.4A10.35,10.35,0,0,1,1174.408,1115Z" transform="translate(-1163.109 -1078.235)" fill="#438be3" opacity="0.2" style="mix-blend-mode: multiply;isolation: isolate"/>
          <path id="Path_2982" data-name="Path 2982" d="M1176.87,981.588a9.964,9.964,0,0,0-9.015,0,3.168,3.168,0,0,0-1.867,2.6v35.669a3.168,3.168,0,0,0,1.867,2.6,9.968,9.968,0,0,0,9.016,0,3.168,3.168,0,0,0,1.866-2.6V984.192A3.168,3.168,0,0,0,1176.87,981.588Z" transform="translate(-1165.219 -980.51)" fill="url(#linear-gradient-5)"/>
          <path id="Path_2983" data-name="Path 2983" d="M1176.869,981.588c2.491,1.438,2.491,3.769,0,5.206a9.968,9.968,0,0,1-9.016,0c-2.49-1.437-2.49-3.768,0-5.206A9.963,9.963,0,0,1,1176.869,981.588Z" transform="translate(-1165.218 -980.51)" fill="#fff"/>
        </g>
      </g>
      <g id="Group_923" data-name="Group 923" transform="translate(225.943 503.539)">
        <rect id="Rectangle_35" data-name="Rectangle 35" width="27.026" height="0.827" transform="matrix(0.866, -0.5, 0.5, 0.866, 0, 13.517)" fill="#fff"/>
      </g>
      <g id="Group_924" data-name="Group 924" transform="translate(161.245 465.885)">
        <rect id="Rectangle_36" data-name="Rectangle 36" width="27.025" height="0.827" transform="translate(0 13.511) rotate(-29.996)" fill="#fff"/>
      </g>
      <g id="Group_925" data-name="Group 925" transform="translate(94.991 428.015)">
        <rect id="Rectangle_37" data-name="Rectangle 37" width="27.026" height="0.827" transform="matrix(0.866, -0.5, 0.5, 0.866, 0, 13.515)" fill="#fff"/>
      </g>
      <g id="Group_926" data-name="Group 926" transform="translate(29.93 389.834)">
        <rect id="Rectangle_38" data-name="Rectangle 38" width="27.025" height="0.827" transform="matrix(0.866, -0.5, 0.5, 0.866, 0, 13.508)" fill="#fff"/>
      </g>
    </g>
  </g>
</svg>
